<svg version="1.1" id="Layer_1" xmlns="http://www.w3.org/2000/svg" xmlns:xlink="http://www.w3.org/1999/xlink" x="0px" y="0px"
	 width="100%" viewBox="0 0 524 866" enable-background="new 0 0 524 866" xml:space="preserve">
<path fill="#000000" opacity="0.000000" stroke="none" 
	d="
M525.000000,324.000000 
	C525.000000,505.333344 525.000000,686.166687 525.000000,867.000000 
	C350.333344,867.000000 175.666672,867.000000 1.000000,867.000000 
	C1.000000,578.333313 1.000000,289.666656 1.000000,1.000000 
	C175.666672,1.000000 350.333344,1.000000 525.000000,1.000000 
	C525.000000,108.500000 525.000000,216.000000 525.000000,324.000000 
M179.841721,79.028076 
	C179.106415,79.350586 178.396408,79.759560 177.632141,79.982994 
	C156.198822,86.249222 137.845749,97.781326 122.196648,113.454727 
	C110.215897,125.454094 100.859436,139.496582 94.438042,155.219635 
	C88.265671,170.332932 84.950066,186.099503 84.957497,202.575775 
	C85.028587,360.239502 84.991722,517.903198 85.042778,675.566956 
	C85.044212,679.983398 85.201279,684.500671 86.107956,688.797424 
	C89.126785,703.103821 92.979691,717.127014 100.411461,729.970276 
	C110.479958,747.370239 122.863548,762.488647 139.517548,774.153931 
	C162.694061,790.387939 188.097992,798.406067 216.436493,798.087280 
	C249.598343,797.714233 282.768494,798.130432 315.933044,797.908691 
	C324.264008,797.853027 332.655762,797.131592 340.901520,795.915466 
	C366.144653,792.192688 387.473663,780.135437 406.059418,763.259399 
	C419.653717,750.915649 429.812439,735.877563 437.037628,718.900024 
	C443.054718,704.761230 446.912903,690.136963 446.962372,674.723877 
	C447.079468,638.224915 447.043213,601.725281 446.955383,565.226196 
	C446.941559,559.477051 446.441895,553.720703 445.980286,547.982727 
	C444.933868,534.975281 440.895050,522.717773 435.423645,511.043060 
	C426.585266,492.183960 414.192108,475.832123 397.523651,463.219299 
	C387.025299,455.275299 376.000305,447.899506 363.154449,443.992249 
	C354.584747,441.385651 345.991974,438.854706 336.896698,436.136627 
	C340.513153,435.376160 343.799500,434.745972 347.056763,433.990387 
	C370.267090,428.606445 390.189545,417.218842 407.519562,401.011444 
	C417.265228,391.897064 425.134857,381.253754 431.522308,369.721558 
	C440.680145,353.187622 446.665741,335.333557 446.875793,316.288116 
	C447.294891,278.293457 447.187592,240.289307 446.863159,202.292786 
	C446.785645,193.216232 445.723083,184.002838 443.860382,175.115036 
	C438.970947,151.784943 427.378754,131.846603 411.078156,114.615891 
	C398.066010,100.861259 382.685242,90.200851 364.982300,83.792778 
	C353.429535,79.610931 341.131256,76.594612 328.931305,75.331245 
	C315.080109,73.896889 300.966095,74.984413 286.966461,75.022072 
	C285.421967,75.026222 283.878265,75.335045 280.957153,75.651970 
	C282.915710,77.374939 283.718445,78.655624 284.779541,78.927345 
	C298.111328,82.341286 309.164001,89.381462 318.162872,99.692535 
	C326.194458,108.895279 331.531403,119.633041 332.804840,131.678802 
	C334.037170,143.336105 333.907898,155.161926 333.954102,166.915390 
	C334.085083,200.247589 334.100098,233.581207 333.909637,266.912842 
	C333.874451,273.068481 333.224030,279.341217 331.895111,285.346924 
	C327.343384,305.917480 305.053467,326.390015 282.700562,325.153015 
	C274.203400,324.682831 265.316376,324.705231 257.117889,326.653137 
	C235.053146,331.895569 222.593597,347.881165 213.911575,367.755829 
	C208.368347,380.445251 208.569122,393.923096 208.228394,407.134216 
	C207.698059,427.697418 208.895050,448.298920 208.929764,468.884918 
	C208.959015,486.226410 213.535385,502.013458 223.074356,516.471069 
	C230.927551,528.373535 241.122467,537.597656 254.978180,541.196411 
	C262.466705,543.141418 270.626190,542.798279 278.492035,542.924927 
	C289.803680,543.106995 300.312103,546.025208 309.547943,552.309204 
	C322.760254,561.298889 331.396423,573.773682 332.837738,589.919312 
	C333.983887,602.758789 333.812225,615.727783 333.911255,628.641663 
	C333.940765,632.493713 333.032959,636.376221 332.340790,640.206116 
	C330.135254,652.409912 323.587250,661.985596 314.441925,670.122375 
	C305.514709,678.065125 295.093353,682.370300 283.329620,682.898987 
	C272.684631,683.377258 261.993011,682.738586 251.337051,683.073364 
	C240.628815,683.409790 231.181213,679.677612 222.699387,673.986023 
	C205.719757,662.592041 198.076141,645.811340 198.059586,625.738647 
	C197.946075,488.074646 197.999146,350.410522 198.013489,212.746414 
	C198.013626,211.506027 198.217789,210.265671 198.339188,208.882996 
	C204.151917,208.574707 209.568161,208.086609 214.988266,208.039429 
	C228.653641,207.920380 242.330231,207.677795 255.984802,208.079834 
	C273.904999,208.607452 288.741516,201.319946 300.878601,189.300919 
	C316.851440,173.483414 323.766174,154.117401 320.150269,131.205322 
	C317.918091,117.061584 311.936981,104.911728 302.232056,95.019188 
	C289.436737,81.976555 273.831207,74.389359 254.876648,74.929138 
	C241.887421,75.299042 228.857178,75.469658 215.885818,74.862831 
	C203.840210,74.299301 192.386642,77.319298 179.841721,79.028076 
z"/>
<path fill="#FFFFFF" opacity="1.000000" stroke="none" 
	d="
M180.270721,79.014839 
	C192.386642,77.319298 203.840210,74.299301 215.885818,74.862831 
	C228.857178,75.469658 241.887421,75.299042 254.876648,74.929138 
	C273.831207,74.389359 289.436737,81.976555 302.232056,95.019188 
	C311.936981,104.911728 317.918091,117.061584 320.150269,131.205322 
	C323.766174,154.117401 316.851440,173.483414 300.878601,189.300919 
	C288.741516,201.319946 273.904999,208.607452 255.984802,208.079834 
	C242.330231,207.677795 228.653641,207.920380 214.988266,208.039429 
	C209.568161,208.086609 204.151917,208.574707 198.339188,208.882996 
	C198.217789,210.265671 198.013626,211.506027 198.013489,212.746414 
	C197.999146,350.410522 197.946075,488.074646 198.059586,625.738647 
	C198.076141,645.811340 205.719757,662.592041 222.699387,673.986023 
	C231.181213,679.677612 240.628815,683.409790 251.337051,683.073364 
	C261.993011,682.738586 272.684631,683.377258 283.329620,682.898987 
	C295.093353,682.370300 305.514709,678.065125 314.441925,670.122375 
	C323.587250,661.985596 330.135254,652.409912 332.340790,640.206116 
	C333.032959,636.376221 333.940765,632.493713 333.911255,628.641663 
	C333.812225,615.727783 333.983887,602.758789 332.837738,589.919312 
	C331.396423,573.773682 322.760254,561.298889 309.547943,552.309204 
	C300.312103,546.025208 289.803680,543.106995 278.492035,542.924927 
	C270.626190,542.798279 262.466705,543.141418 254.978180,541.196411 
	C241.122467,537.597656 230.927551,528.373535 223.074356,516.471069 
	C213.535385,502.013458 208.959015,486.226410 208.929764,468.884918 
	C208.895050,448.298920 207.698059,427.697418 208.228394,407.134216 
	C208.569122,393.923096 208.368347,380.445251 213.911575,367.755829 
	C222.593597,347.881165 235.053146,331.895569 257.117889,326.653137 
	C265.316376,324.705231 274.203400,324.682831 282.700562,325.153015 
	C305.053467,326.390015 327.343384,305.917480 331.895111,285.346924 
	C333.224030,279.341217 333.874451,273.068481 333.909637,266.912842 
	C334.100098,233.581207 334.085083,200.247589 333.954102,166.915390 
	C333.907898,155.161926 334.037170,143.336105 332.804840,131.678802 
	C331.531403,119.633041 326.194458,108.895279 318.162872,99.692535 
	C309.164001,89.381462 298.111328,82.341286 284.779541,78.927345 
	C283.718445,78.655624 282.915710,77.374939 280.957153,75.651970 
	C283.878265,75.335045 285.421967,75.026222 286.966461,75.022072 
	C300.966095,74.984413 315.080109,73.896889 328.931305,75.331245 
	C341.131256,76.594612 353.429535,79.610931 364.982300,83.792778 
	C382.685242,90.200851 398.066010,100.861259 411.078156,114.615891 
	C427.378754,131.846603 438.970947,151.784943 443.860382,175.115036 
	C445.723083,184.002838 446.785645,193.216232 446.863159,202.292786 
	C447.187592,240.289307 447.294891,278.293457 446.875793,316.288116 
	C446.665741,335.333557 440.680145,353.187622 431.522308,369.721558 
	C425.134857,381.253754 417.265228,391.897064 407.519562,401.011444 
	C390.189545,417.218842 370.267090,428.606445 347.056763,433.990387 
	C343.799500,434.745972 340.513153,435.376160 336.896698,436.136627 
	C345.991974,438.854706 354.584747,441.385651 363.154449,443.992249 
	C376.000305,447.899506 387.025299,455.275299 397.523651,463.219299 
	C414.192108,475.832123 426.585266,492.183960 435.423645,511.043060 
	C440.895050,522.717773 444.933868,534.975281 445.980286,547.982727 
	C446.441895,553.720703 446.941559,559.477051 446.955383,565.226196 
	C447.043213,601.725281 447.079468,638.224915 446.962372,674.723877 
	C446.912903,690.136963 443.054718,704.761230 437.037628,718.900024 
	C429.812439,735.877563 419.653717,750.915649 406.059418,763.259399 
	C387.473663,780.135437 366.144653,792.192688 340.901520,795.915466 
	C332.655762,797.131592 324.264008,797.853027 315.933044,797.908691 
	C282.768494,798.130432 249.598343,797.714233 216.436493,798.087280 
	C188.097992,798.406067 162.694061,790.387939 139.517548,774.153931 
	C122.863548,762.488647 110.479958,747.370239 100.411461,729.970276 
	C92.979691,717.127014 89.126785,703.103821 86.107956,688.797424 
	C85.201279,684.500671 85.044212,679.983398 85.042778,675.566956 
	C84.991722,517.903198 85.028587,360.239502 84.957497,202.575775 
	C84.950066,186.099503 88.265671,170.332932 94.438042,155.219635 
	C100.859436,139.496582 110.215897,125.454094 122.196648,113.454727 
	C137.845749,97.781326 156.198822,86.249222 177.632141,79.982994 
	C178.396408,79.759560 179.106415,79.350586 180.270721,79.014839 
M233.592163,130.058701 
	C245.450928,138.093628 255.579025,135.760468 263.142578,127.451370 
	C268.839081,121.193375 270.913788,114.126640 267.645050,106.470314 
	C264.244171,98.504379 258.173401,92.761925 249.019363,92.081100 
	C238.905579,91.328873 231.776764,96.630531 226.868851,107.379501 
	C224.501648,112.564018 226.547699,123.367813 233.592163,130.058701 
z"/>
<path fill="#000000" opacity="0.000000" stroke="none" 
	d="
M233.314514,129.808121 
	C226.547699,123.367813 224.501648,112.564018 226.868851,107.379501 
	C231.776764,96.630531 238.905579,91.328873 249.019363,92.081100 
	C258.173401,92.761925 264.244171,98.504379 267.645050,106.470314 
	C270.913788,114.126640 268.839081,121.193375 263.142578,127.451370 
	C255.579025,135.760468 245.450928,138.093628 233.314514,129.808121 
z"/>
</svg>