<?xml version="1.0" standalone="no"?>
<!DOCTYPE svg PUBLIC "-//W3C//DTD SVG 20010904//EN"
 "http://www.w3.org/TR/2001/REC-SVG-20010904/DTD/svg10.dtd">
<svg version="1.0" xmlns="http://www.w3.org/2000/svg"
 width="1392.000000pt" height="2322.000000pt" viewBox="0 0 1392.000000 2322.000000"
 preserveAspectRatio="xMidYMid meet">
<metadata>
Created by potrace 1.10, written by Peter Selinger 2001-2011
</metadata>
<g transform="translate(0.000000,2322.000000) scale(0.100000,-0.100000)"
fill="#000000" stroke="none">
<path d="M5164 21820 c-15 -16 -50 -26 -135 -39 -214 -35 -485 -113 -724 -208
-92 -37 -372 -177 -427 -214 -33 -21 -62 -39 -65 -39 -3 0 -25 -13 -50 -30
-24 -16 -46 -30 -49 -30 -3 0 -78 -55 -167 -122 -560 -421 -970 -967 -1207
-1608 -67 -180 -143 -462 -166 -610 -8 -52 -22 -147 -31 -210 -17 -108 -18
-390 -17 -4920 0 -2643 1 -4879 0 -4970 0 -91 0 -883 -1 -1760 0 -1654 0
-1640 41 -1905 87 -554 324 -1110 664 -1560 257 -340 596 -649 969 -882 107
-67 488 -263 510 -263 6 0 25 -6 43 -14 59 -26 252 -95 293 -105 22 -5 101
-25 175 -44 74 -19 218 -47 320 -63 l185 -29 1705 0 1705 0 195 32 c212 34
485 101 620 152 47 17 111 41 143 52 49 16 277 120 328 148 8 5 39 22 68 37
29 16 60 34 69 39 31 19 97 60 117 73 11 6 27 15 35 19 14 6 180 125 285 204
94 71 312 274 417 389 138 151 298 367 405 543 120 198 245 450 288 578 13 41
34 99 45 129 25 64 27 71 75 255 42 162 47 188 77 378 l23 142 0 1730 c0 1341
-3 1747 -13 1805 -6 41 -19 120 -27 175 -28 182 -97 440 -165 615 -12 30 -26
68 -31 85 -5 16 -16 46 -25 65 -21 45 -91 194 -112 240 -24 50 -202 347 -247
411 -145 207 -330 419 -501 574 -54 50 -108 98 -119 109 -61 56 -344 257 -467
332 -162 98 -386 209 -533 264 -253 94 -529 167 -738 196 -133 18 -164 32
-136 60 9 9 69 22 152 34 172 26 416 86 583 146 71 25 140 49 154 53 55 18
392 180 440 213 19 13 42 27 50 31 8 4 29 16 45 27 17 11 37 23 45 27 76 36
361 254 512 392 79 72 148 137 153 144 6 7 49 55 96 107 100 110 322 407 352
470 4 8 16 29 27 45 11 17 23 37 27 45 4 8 18 31 31 50 32 47 194 382 213 440
4 14 24 70 45 125 47 131 128 443 149 575 8 58 20 130 25 160 24 134 30 512
30 1820 0 1317 -6 1662 -30 1810 -38 236 -52 319 -60 345 -5 17 -15 57 -24 90
-25 103 -59 219 -67 235 -4 8 -17 42 -28 75 -11 34 -24 72 -29 85 -43 108 -62
151 -119 270 -101 209 -208 383 -398 642 -119 161 -455 496 -605 604 -30 21
-64 47 -75 56 -69 57 -361 242 -465 294 -165 82 -303 144 -376 169 -43 15
-108 38 -144 52 -86 32 -390 108 -510 127 -335 53 -383 56 -990 56 -539 0
-620 -3 -620 -19 0 -3 60 -20 134 -38 298 -71 595 -236 821 -458 75 -74 179
-196 219 -258 22 -34 57 -88 78 -120 21 -32 38 -60 38 -63 0 -2 14 -33 30 -69
17 -36 44 -94 60 -130 17 -36 30 -71 30 -77 0 -7 6 -30 14 -53 8 -22 22 -76
31 -120 9 -44 22 -98 28 -120 8 -29 12 -595 14 -1987 3 -1897 3 -1951 -16
-2060 -33 -188 -77 -325 -149 -460 -193 -364 -503 -626 -884 -749 -120 -38
-242 -49 -568 -49 -334 -1 -424 -9 -570 -56 -306 -96 -577 -296 -795 -584 -89
-118 -109 -150 -184 -292 -53 -102 -70 -140 -101 -228 -5 -14 -18 -50 -30 -80
-32 -84 -74 -253 -90 -365 -23 -162 -32 -635 -27 -1505 6 -916 8 -974 48
-1180 57 -297 191 -632 340 -853 79 -116 83 -121 187 -240 239 -270 580 -456
897 -487 66 -7 255 -16 420 -20 278 -7 307 -9 395 -33 327 -89 617 -280 814
-536 120 -156 221 -364 269 -556 41 -161 41 -169 45 -757 3 -547 2 -582 -18
-704 -12 -70 -25 -135 -31 -145 -5 -10 -9 -27 -9 -38 0 -11 -6 -35 -14 -53 -8
-18 -22 -53 -31 -78 -27 -68 -75 -169 -109 -225 -95 -158 -270 -348 -416 -451
-101 -71 -101 -71 -215 -128 -108 -53 -146 -68 -290 -109 l-110 -32 -620 0
c-564 0 -627 2 -695 18 -301 73 -543 208 -756 425 -181 183 -305 404 -381 678
l-28 99 0 5865 0 5865 70 8 c39 5 444 12 900 16 728 6 837 9 885 23 30 9 84
24 120 34 80 20 175 51 198 63 26 15 151 71 157 71 6 0 120 69 195 118 53 34
126 93 220 177 124 110 297 337 371 485 71 142 117 255 140 340 43 165 49 222
49 483 0 272 0 275 -56 487 -58 219 -222 527 -360 675 -26 28 -61 66 -78 85
-30 33 -132 125 -201 182 -30 25 -111 78 -215 140 -177 105 -478 198 -707 218
-71 6 -444 10 -900 10 -771 0 -779 0 -799 -20z m1619 -459 c153 -77 262 -199
318 -356 28 -78 31 -291 6 -372 -50 -163 -171 -306 -317 -374 -87 -41 -115
-48 -207 -54 -139 -10 -235 5 -326 49 -221 106 -347 308 -347 557 0 223 115
422 306 530 112 64 132 68 314 66 l165 -2 88 -44z"/>
</g>
</svg>
