<svg version="1.1" id="Layer_1" xmlns="http://www.w3.org/2000/svg" xmlns:xlink="http://www.w3.org/1999/xlink" x="0px" y="0px"
	 width="100%" viewBox="0 0 968 486" enable-background="new 0 0 968 486" xml:space="preserve">
<path fill="#000000" opacity="0.000000" stroke="none" 
	d="
M698.000000,487.000000 
	C465.333344,487.000000 233.166672,487.000000 1.000000,487.000000 
	C1.000000,325.000000 1.000000,163.000000 1.000000,1.000000 
	C323.666656,1.000000 646.333313,1.000000 969.000000,1.000000 
	C969.000000,163.000000 969.000000,325.000000 969.000000,487.000000 
	C878.833313,487.000000 788.666687,487.000000 698.000000,487.000000 
M116.487625,23.025351 
	C116.317841,23.076160 116.148056,23.126968 115.201782,23.028505 
	C111.288368,24.634295 107.394829,24.480450 103.459053,23.038895 
	C102.724350,22.769794 101.806725,23.000023 100.973511,23.000019 
	C93.641243,22.999987 86.308945,22.986830 78.976715,23.002634 
	C61.609661,23.040073 46.637131,29.495356 34.365337,41.349190 
	C21.589510,53.689892 15.154141,69.439835 15.099059,87.128593 
	C14.865549,162.116959 14.955797,237.106537 15.086265,312.095398 
	C15.096395,317.917969 15.939695,323.815155 17.062843,329.546936 
	C22.727118,358.453522 50.212402,378.982239 78.104263,378.998047 
	C96.268280,379.008331 114.432335,378.979065 132.596313,379.008636 
	C141.987900,379.023956 151.223938,377.102173 159.246796,372.739929 
	C181.681595,360.541473 194.822311,341.948181 194.979233,315.595123 
	C195.087402,297.431732 195.299896,279.260712 194.907532,261.105133 
	C194.578491,245.880768 188.897903,232.468231 178.643875,221.207108 
	C168.417969,209.976868 155.968353,202.757980 139.761292,201.560043 
	C164.216019,198.603348 184.359482,180.427567 191.542725,159.632477 
	C193.726593,153.310303 194.799393,146.299637 194.834610,139.596191 
	C194.947052,118.192741 195.519730,96.679367 193.617935,75.413826 
	C192.140854,58.897179 182.645554,45.635372 169.130203,35.518036 
	C159.261322,28.130384 148.055969,24.497349 136.099167,23.149748 
	C131.496246,22.630972 126.705513,23.778498 121.527855,24.003778 
	C121.527855,24.003778 121.042328,23.885084 120.718521,23.207075 
	C119.479019,23.193781 118.239525,23.180487 116.487625,23.025351 
M813.000000,237.500000 
	C813.000000,257.992767 813.025635,278.485596 812.971313,298.978241 
	C812.963562,301.902222 812.948120,304.141602 817.028625,304.070923 
	C828.687622,303.868927 840.353088,303.925903 852.014221,304.049622 
	C855.097107,304.082336 856.102783,302.929932 856.046448,299.934845 
	C855.905579,292.440216 856.462708,284.903503 855.857117,277.455475 
	C855.349976,271.217773 857.836426,267.312042 862.907532,264.258911 
	C871.883057,276.629028 880.734192,288.982971 889.827698,301.155853 
	C890.913147,302.608795 893.306152,303.848572 895.113831,303.877289 
	C909.105225,304.099762 923.102051,304.040649 937.096130,303.931549 
	C938.372437,303.921600 939.641296,302.951080 940.913574,302.426636 
	C940.320984,301.170105 939.922424,299.766388 939.101013,298.683502 
	C936.150269,294.793854 933.018066,291.042542 930.024536,287.184570 
	C922.467102,277.444794 914.921997,267.695160 907.421692,257.911316 
	C902.119141,250.994354 896.897949,244.015076 891.500061,236.878036 
	C909.015747,220.470123 926.198181,204.374374 943.380615,188.278641 
	C943.276367,187.797272 943.172058,187.315918 943.067810,186.834564 
	C941.313232,186.556366 939.559753,186.045868 937.803833,186.036972 
	C924.475708,185.969391 911.142212,186.211121 897.820557,185.909073 
	C891.361328,185.762604 886.424072,186.478622 881.726196,192.303116 
	C873.955994,201.936646 864.574890,210.270889 856.000000,219.022507 
	C856.000000,194.977585 855.919983,170.514679 856.081421,146.053375 
	C856.107361,142.119965 855.023499,140.818375 851.002014,140.912994 
	C840.178650,141.167648 829.339539,141.204376 818.518616,140.901062 
	C814.088989,140.776871 812.878052,142.141312 812.904724,146.533127 
	C813.086487,176.521179 813.000000,206.510849 813.000000,237.500000 
M348.000000,257.500000 
	C348.000000,235.335236 347.907410,213.169739 348.085052,191.006409 
	C348.117157,187.003174 346.908020,185.813950 342.952301,185.916351 
	C333.126404,186.170715 323.289490,185.997101 313.457001,186.000809 
	C303.657654,186.004517 305.096558,185.301193 304.943176,194.081131 
	C304.940063,194.258453 304.548126,194.428986 304.382233,194.565857 
	C302.845917,193.365311 301.383545,192.080032 299.784607,190.996216 
	C289.678040,184.145508 278.668823,182.617828 266.562561,183.816269 
	C249.183762,185.536667 237.560715,194.930893 229.032852,209.131622 
	C222.100143,220.676041 220.727173,233.437408 220.883209,246.707321 
	C221.114548,266.384064 227.027954,283.243958 242.552536,296.050110 
	C253.887955,305.400696 267.149872,307.872986 281.060944,305.228271 
	C288.870148,303.743591 296.244537,299.971985 303.908173,297.196930 
	C303.849152,296.729584 304.074402,297.349274 303.975586,297.912018 
	C303.034851,303.270325 305.662628,304.245941 310.458069,304.103394 
	C321.447388,303.776642 332.454895,303.889099 343.451141,304.064880 
	C346.926849,304.120422 348.110077,303.028320 348.067230,299.495667 
	C347.901611,285.832184 347.999969,272.165497 348.000000,257.500000 
M386.614685,264.000061 
	C385.096802,264.800720 383.374359,265.359924 382.095947,266.443207 
	C376.091766,271.530975 370.407135,277.017456 364.198181,281.832672 
	C361.215942,284.145477 361.086670,285.973816 363.615173,288.033203 
	C367.501373,291.198425 371.403046,294.509796 375.772461,296.887451 
	C392.732025,306.116180 410.936829,307.612732 429.785309,305.047546 
	C444.276459,303.075287 456.054504,296.486450 463.975006,284.295227 
	C470.655548,274.012543 471.358521,262.505096 465.936096,251.436966 
	C461.577087,242.539429 453.035553,238.190948 444.077942,235.025696 
	C434.126740,231.509308 423.947418,228.611969 414.113281,224.809204 
	C411.603851,223.838821 408.151093,220.219879 408.408844,218.245758 
	C408.937347,214.198563 413.147308,212.985382 417.170593,213.023819 
	C418.130096,213.032990 419.168701,213.152618 420.031891,213.535187 
	C427.301971,216.757401 434.764832,219.647552 441.691711,223.497574 
	C445.128845,225.407974 447.239990,225.496719 449.788239,222.755966 
	C455.302246,216.825409 460.823547,210.898880 466.471069,205.096451 
	C469.274780,202.215897 468.181732,200.034561 465.537842,198.162613 
	C451.244751,188.042801 435.042786,183.406311 417.793640,183.162231 
	C405.773071,182.992142 394.202393,185.567780 383.431946,191.816330 
	C370.238403,199.470673 363.082886,216.095032 367.753845,231.396179 
	C372.118408,245.693497 382.958588,252.472610 395.870087,256.943542 
	C404.637817,259.979614 413.707489,262.142609 422.481079,265.163757 
	C424.345154,265.805634 426.502563,268.382294 426.678650,270.242340 
	C426.815247,271.684845 424.317474,273.805237 422.539185,274.870941 
	C420.996094,275.795715 418.719757,276.221130 416.939911,275.902863 
	C408.697296,274.428955 400.561676,272.567535 393.649170,267.317322 
	C391.798157,265.911438 389.503265,265.089874 386.614685,264.000061 
M767.360107,186.001892 
	C754.544006,183.061722 741.673767,181.985886 728.710693,185.006989 
	C710.871887,189.164398 692.134094,202.003357 694.911804,225.687241 
	C695.953186,234.566635 699.317444,242.550568 706.319824,247.338913 
	C713.714233,252.395355 722.493164,255.579269 730.934937,258.900879 
	C737.024231,261.296844 743.704346,262.187622 749.802734,264.565704 
	C752.005981,265.424866 753.283020,268.659271 754.982727,270.809784 
	C752.600464,272.539612 750.326660,274.460632 747.781982,275.904144 
	C746.778687,276.473297 745.105164,276.239929 743.849304,275.924347 
	C734.970154,273.692871 726.215759,271.255463 718.729492,265.466431 
	C717.341858,264.393311 713.754700,264.325806 712.390747,265.370911 
	C705.527405,270.629761 699.033264,276.375122 692.477417,282.028442 
	C690.044373,284.126587 690.293030,286.530884 692.819031,288.225800 
	C699.344299,292.604218 705.656311,297.537781 712.715210,300.831299 
	C725.009705,306.567688 738.433655,306.539825 751.706970,305.949219 
	C765.029663,305.356384 777.038147,300.977905 786.772400,291.637726 
	C795.047913,283.697235 797.775208,273.723358 797.131775,262.338623 
	C796.705383,254.793961 794.123535,248.093491 788.274841,244.201126 
	C780.773621,239.208969 772.256348,235.598053 763.876465,232.114624 
	C756.361328,228.990707 748.440857,226.841309 740.696411,224.270233 
	C737.744324,223.290146 736.141235,221.099121 737.156677,218.265533 
	C737.775024,216.540100 739.698608,214.719574 741.446167,214.100922 
	C743.746155,213.286758 746.821167,212.727493 748.912109,213.606628 
	C756.236267,216.685974 763.333374,220.328156 770.408142,223.967514 
	C773.600952,225.609924 776.208862,225.666382 778.674255,222.816971 
	C783.391174,217.365128 788.063843,211.867996 792.965515,206.585175 
	C797.158447,202.066269 797.372070,199.909256 792.068909,197.120255 
	C784.317078,193.043488 776.183716,189.691940 767.360107,186.001892 
M634.445007,463.050873 
	C636.741272,463.700592 639.029480,464.876404 641.335205,464.911987 
	C653.498413,465.099731 665.666138,465.020966 677.832031,464.971985 
	C679.261719,464.966187 680.802551,464.851349 682.101318,464.320801 
	C695.583435,458.813110 703.280334,448.308411 703.765808,434.210571 
	C704.608459,409.740723 703.972534,385.220856 704.036499,360.722137 
	C704.043884,357.880829 702.926392,356.866608 700.169189,356.965576 
	C696.340881,357.102966 692.436707,356.551971 688.688232,357.115448 
	C684.183899,357.792480 678.714172,354.236603 675.157837,359.880188 
	C675.020081,360.098724 673.417725,359.443268 672.521667,359.127319 
	C664.562134,356.321167 656.756775,354.135315 647.940552,355.827301 
	C635.151001,358.281738 626.954834,365.294037 621.881958,377.045502 
	C618.122986,385.753357 618.306458,394.840698 619.223206,403.672455 
	C620.584778,416.789459 629.633972,428.710205 643.561890,431.885956 
	C654.168335,434.304291 664.885681,434.512421 674.787109,428.027161 
	C674.787109,428.793365 674.886963,429.286163 674.759766,429.710968 
	C674.625793,430.158600 674.102417,430.518402 674.044495,430.955719 
	C673.127258,437.878021 669.494568,441.760498 662.408447,443.279358 
	C653.757141,445.133698 646.058289,443.305267 638.630615,439.207397 
	C635.071838,437.244019 632.549194,437.525543 630.997375,441.668579 
	C630.154419,443.919373 629.038696,446.073303 627.970703,448.233734 
	C622.953857,458.382324 622.944275,458.378387 633.127747,462.978027 
	C633.268188,463.041504 633.457581,462.996704 634.445007,463.050873 
M559.000000,147.669830 
	C559.000000,197.982681 559.038513,248.295609 558.926270,298.608215 
	C558.917358,302.594360 559.747559,304.231628 564.159546,304.104340 
	C575.145874,303.787384 586.149780,303.876678 597.141846,304.069916 
	C600.769470,304.133698 602.081055,303.132355 602.072937,299.308167 
	C601.963989,248.162567 601.953979,197.016541 602.085999,145.871063 
	C602.096741,141.707489 600.595154,140.849365 596.820984,140.925156 
	C586.162964,141.139191 575.491211,141.220016 564.838623,140.896851 
	C560.272034,140.758331 558.169556,141.972427 559.000000,147.669830 
M459.500610,435.000000 
	C476.996582,435.000000 494.493805,434.886841 511.987518,435.085571 
	C515.982849,435.130981 517.312317,433.930542 517.075012,429.957062 
	C516.767639,424.809937 516.814697,419.621643 517.063416,414.468140 
	C517.236694,410.878326 515.839478,409.886322 512.414001,409.937500 
	C501.252380,410.104340 490.086121,410.071747 478.922760,409.980072 
	C467.433075,409.885742 469.319794,411.786469 468.916504,399.878571 
	C468.774963,395.700714 470.394897,394.843323 474.175049,394.925018 
	C484.334656,395.144562 494.503448,394.906067 504.665619,395.054962 
	C507.871735,395.101959 509.198090,394.117950 509.053436,390.780975 
	C508.844330,385.957825 508.743958,381.101105 509.077362,376.292023 
	C509.368103,372.098694 507.959351,370.786835 503.734161,370.906708 
	C493.578003,371.194885 483.406616,370.899719 473.244720,371.057465 
	C469.945557,371.108612 468.627899,369.932648 468.979950,366.693085 
	C469.105255,365.540344 469.148895,364.339569 468.973541,363.200195 
	C468.306396,358.865814 470.289856,357.834198 474.353668,357.916656 
	C486.012848,358.153168 497.681122,357.908447 509.343201,358.057892 
	C512.679382,358.100616 514.237061,357.278198 514.066162,353.602783 
	C513.811096,348.115906 513.892822,342.605469 514.043152,337.110840 
	C514.123718,334.164398 513.188477,332.937775 510.058990,332.950745 
	C487.731201,333.043213 465.402649,333.037506 443.074768,332.955414 
	C440.094513,332.944458 438.944672,333.884705 438.952393,336.975891 
	C439.030548,368.301849 439.028351,399.628082 438.954956,430.954071 
	C438.947906,433.966553 439.938263,435.148804 443.006104,435.046844 
	C448.165863,434.875397 453.335510,434.999969 459.500610,435.000000 
M675.000000,291.472656 
	C675.000000,257.993347 674.939087,224.513794 675.081116,191.035110 
	C675.097900,187.080521 673.982422,185.829056 669.986511,185.913925 
	C658.498779,186.157944 647.000854,186.111755 635.510681,185.933060 
	C631.989624,185.878281 630.928345,187.058380 630.937988,190.537567 
	C631.038574,226.848145 631.038940,263.159241 630.937500,299.469788 
	C630.927734,302.958740 632.005310,304.140106 635.518494,304.066406 
	C644.841980,303.870728 654.172180,304.000000 663.499756,304.000000 
	C675.000000,304.000031 675.000000,304.000000 675.000000,291.472656 
M529.000000,262.500000 
	C529.000000,238.682297 528.917542,214.864029 529.081726,191.047455 
	C529.108887,187.108688 528.012573,185.823166 523.998840,185.913177 
	C512.845093,186.163361 501.680328,186.112549 490.523865,185.933823 
	C487.020294,185.877686 485.927429,187.027634 485.937256,190.524155 
	C486.039307,226.833344 486.038086,263.143036 485.938599,299.452240 
	C485.929108,302.917847 486.965454,304.124359 490.500244,304.067535 
	C501.823212,303.885590 513.152710,303.888763 524.475830,304.066162 
	C527.978760,304.121002 529.116394,302.977203 529.066101,299.475433 
	C528.893738,287.485779 529.000000,275.492126 529.000000,262.500000 
M608.000000,413.499695 
	C608.000000,403.166840 608.146973,392.831390 607.967896,382.501648 
	C607.645447,363.906494 597.549377,355.375610 580.529236,355.053680 
	C572.796997,354.907440 565.860352,357.871948 558.915649,362.566071 
	C559.709900,357.595367 557.548828,356.749939 553.811218,356.922791 
	C547.658020,357.207367 541.478027,357.132294 535.317322,356.946014 
	C532.087036,356.848297 530.928955,357.928955 530.944031,361.236267 
	C531.049866,384.401398 531.048706,407.567413 530.944824,430.732544 
	C530.930115,434.006500 532.023682,435.140411 535.285950,435.055634 
	C542.280884,434.873932 549.290710,434.814087 556.280762,435.074005 
	C560.091248,435.215729 561.118408,433.819397 561.070984,430.163940 
	C560.893433,416.500183 560.955505,402.832458 561.057190,389.167175 
	C561.069641,387.492157 561.384338,385.417694 562.388184,384.228210 
	C565.224060,380.867981 568.353577,377.719727 573.546997,379.974396 
	C578.269165,382.024475 579.008057,385.961487 579.004150,390.400818 
	C578.992615,403.733521 579.088623,417.067261 578.938721,430.398254 
	C578.900391,433.803558 579.846191,435.191772 583.452942,435.067810 
	C590.277893,434.833160 597.118896,434.897736 603.948608,435.046844 
	C606.962585,435.112640 608.142212,434.069702 608.047607,430.997162 
	C607.878418,425.502625 607.999939,419.999146 608.000000,413.499695 
M806.131897,357.339783 
	C803.125549,359.053864 800.119202,360.767944 796.928223,362.587280 
	C797.919128,357.912323 795.776184,356.707977 791.494385,356.921692 
	C785.344727,357.228638 779.165344,357.114288 773.004639,356.951782 
	C769.936890,356.870850 768.943481,358.035461 768.954224,361.046906 
	C769.037231,384.373535 769.040466,407.700745 768.951599,431.027313 
	C768.939819,434.122253 770.097656,435.106537 773.078552,435.045593 
	C780.073669,434.902679 787.083984,434.773010 794.067993,435.086029 
	C798.187012,435.270630 799.133972,433.721405 799.078430,429.877472 
	C798.878784,416.050812 798.964600,402.219421 799.016785,388.390076 
	C799.038757,382.577362 805.808960,378.043823 811.310669,379.984528 
	C815.967834,381.627441 816.988525,385.355377 816.993835,389.670654 
	C817.010620,403.333557 817.073364,416.997162 816.945618,430.658875 
	C816.915771,433.855713 817.869080,435.153809 821.210999,435.057037 
	C827.870300,434.864319 834.545715,434.821045 841.201233,435.070221 
	C844.910461,435.209137 846.112305,433.997772 846.074280,430.245667 
	C845.903625,413.418701 846.332336,396.579590 845.855530,379.764404 
	C845.627258,371.716095 842.754211,364.466217 835.307129,359.658203 
	C826.178223,353.764313 816.679871,354.423065 806.131897,357.339783 
M898.082947,410.984711 
	C893.313721,409.601990 889.342224,407.210754 886.673279,402.159210 
	C888.016968,402.085297 888.790344,402.006165 889.563660,402.005737 
	C903.224548,401.998108 916.885437,401.991425 930.546326,402.008514 
	C932.792175,402.011353 935.214172,402.197845 934.972229,398.906616 
	C934.529602,392.885773 934.956177,386.554169 933.190918,380.925873 
	C928.723694,366.682129 919.119995,358.078796 903.710632,355.851501 
	C890.291870,353.911896 878.566895,356.687103 868.764954,365.869537 
	C859.541565,374.510040 856.559814,385.714691 856.948975,398.146942 
	C857.430969,413.547821 864.653198,424.583740 877.878967,431.982513 
	C886.282227,436.683411 895.510254,436.005646 904.641663,436.015076 
	C914.038574,436.024750 922.273499,432.554199 929.841675,427.419128 
	C931.063660,426.590027 932.212524,423.408630 931.610413,422.508453 
	C928.280090,417.529755 924.575439,412.760773 920.573914,408.301483 
	C919.612854,407.230499 916.265686,406.690369 915.332214,407.474060 
	C910.382141,411.629944 904.646179,410.962891 898.082947,410.984711 
M751.000000,409.500000 
	C751.000000,393.515930 750.919006,377.531128 751.063904,361.548370 
	C751.095337,358.083344 750.042358,356.817078 746.501526,356.934265 
	C739.682495,357.159943 732.848328,357.104767 726.025208,356.952301 
	C722.987732,356.884460 721.942322,357.985077 721.953369,361.021118 
	C722.038452,384.330872 722.036987,407.641266 721.954529,430.951080 
	C721.943909,433.955048 722.927795,435.117035 725.997375,435.048889 
	C732.986938,434.893646 739.984558,434.896851 746.974365,435.047791 
	C750.011108,435.113373 751.116028,434.020203 751.047852,430.978485 
	C750.894775,424.155365 750.999939,417.326508 751.000000,409.500000 
M629.291443,153.819611 
	C632.005615,160.422028 637.243896,164.081436 644.009827,164.864288 
	C649.725281,165.525574 655.640930,165.536285 661.354187,164.865479 
	C668.608887,164.013672 674.159729,159.664703 676.505371,152.811569 
	C678.984985,145.567230 678.613342,138.193970 673.327148,131.802551 
	C666.057556,123.013176 650.724854,122.502113 641.241028,126.003265 
	C629.095337,130.487106 625.913574,141.272675 629.291443,153.819611 
M517.864868,125.339592 
	C512.075317,125.226311 506.286072,125.041756 500.496216,125.018211 
	C493.612488,124.990219 485.278076,132.221848 483.510834,138.874466 
	C481.302002,147.189636 483.310852,156.602600 489.776917,161.024841 
	C493.089050,163.290070 497.233856,164.787933 501.209076,165.540070 
	C509.580566,167.123962 517.837891,165.973877 525.091858,161.285965 
	C531.896606,156.888367 532.387634,149.874008 532.081482,142.481750 
	C531.728821,133.964020 527.171021,128.051117 517.864868,125.339592 
M734.655518,317.000000 
	C733.990967,317.000000 733.326111,316.987366 732.661926,317.002014 
	C727.355042,317.119110 720.980469,321.701874 720.026245,326.080872 
	C718.185669,334.526398 720.187744,340.846069 727.119263,342.745087 
	C732.724609,344.280792 739.011902,343.365173 744.997742,343.423981 
	C745.702759,343.430908 746.455627,342.782776 747.117249,342.336029 
	C755.200317,336.878235 755.624634,324.230804 747.654114,319.453125 
	C744.333374,317.462646 739.647888,317.748962 734.655518,317.000000 
z"/>
<path fill="#FFFFFF" opacity="1.000000" stroke="none" 
	d="
M122.000351,24.166807 
	C126.705513,23.778498 131.496246,22.630972 136.099167,23.149748 
	C148.055969,24.497349 159.261322,28.130384 169.130203,35.518036 
	C182.645554,45.635372 192.140854,58.897179 193.617935,75.413826 
	C195.519730,96.679367 194.947052,118.192741 194.834610,139.596191 
	C194.799393,146.299637 193.726593,153.310303 191.542725,159.632477 
	C184.359482,180.427567 164.216019,198.603348 139.761292,201.560043 
	C155.968353,202.757980 168.417969,209.976868 178.643875,221.207108 
	C188.897903,232.468231 194.578491,245.880768 194.907532,261.105133 
	C195.299896,279.260712 195.087402,297.431732 194.979233,315.595123 
	C194.822311,341.948181 181.681595,360.541473 159.246796,372.739929 
	C151.223938,377.102173 141.987900,379.023956 132.596313,379.008636 
	C114.432335,378.979065 96.268280,379.008331 78.104263,378.998047 
	C50.212402,378.982239 22.727118,358.453522 17.062843,329.546936 
	C15.939695,323.815155 15.096395,317.917969 15.086265,312.095398 
	C14.955797,237.106537 14.865549,162.116959 15.099059,87.128593 
	C15.154141,69.439835 21.589510,53.689892 34.365337,41.349190 
	C46.637131,29.495356 61.609661,23.040073 78.976715,23.002634 
	C86.308945,22.986830 93.641243,22.999987 100.973511,23.000019 
	C101.806725,23.000023 102.724350,22.769794 103.459053,23.038895 
	C107.394829,24.480450 111.288368,24.634295 115.496216,23.306194 
	C115.860237,24.056120 115.929817,24.528358 116.168091,25.318663 
	C117.891197,26.091152 119.445595,26.545576 121.256157,26.811527 
	C121.674995,25.804306 121.837669,24.985556 122.000351,24.166807 
M85.982841,155.528015 
	C88.474976,153.414734 90.771439,150.995483 93.499352,149.250854 
	C99.457748,145.440125 106.277512,145.772125 112.970268,146.023148 
	C124.946030,146.472305 137.168793,133.991486 137.058578,122.136086 
	C136.854111,100.143944 137.244781,78.143784 136.817413,56.158054 
	C136.718124,51.051037 134.788940,45.800587 132.818909,40.976681 
	C131.654236,38.124809 128.758514,35.979885 126.641220,33.517056 
	C126.236748,33.851910 125.832268,34.186760 125.427795,34.521610 
	C131.630707,41.759998 133.280045,50.149033 133.135834,59.477917 
	C132.898102,74.856003 117.999718,89.803062 102.549004,89.983971 
	C94.718864,90.075645 86.873337,90.276840 79.060524,89.897705 
	C74.260094,89.664757 72.880241,91.111847 72.892136,95.993706 
	C73.052849,161.975449 73.063492,227.957825 72.942360,293.939728 
	C72.920151,306.038513 82.570847,319.958374 94.826454,321.000732 
	C99.883392,321.430817 104.956932,321.953552 110.021889,321.942963 
	C121.438568,321.919128 133.274490,314.877808 135.795029,303.059021 
	C137.351852,295.759125 136.479294,287.968140 137.043076,280.423431 
	C138.032761,267.179504 125.008820,253.293259 110.460159,253.937897 
	C106.897903,254.095734 103.187874,253.960617 99.740349,253.141388 
	C84.436432,249.504745 76.693443,232.961060 76.106873,218.299301 
	C75.594406,205.489944 75.651222,192.631088 76.120247,179.818405 
	C76.443382,170.991180 79.134880,162.696625 85.982841,155.528015 
M91.053650,50.568291 
	C97.275795,53.476231 99.963478,53.381073 103.485535,47.634933 
	C105.057030,45.071072 104.891121,40.056194 103.372643,37.359200 
	C101.726768,34.435951 98.165657,31.688601 93.504341,33.881180 
	C85.930733,37.443645 84.652412,43.763454 91.053650,50.568291 
M123.729279,32.051105 
	C123.687599,32.367363 123.528625,32.907932 123.625771,32.958729 
	C123.944595,33.125443 124.356407,33.114319 124.732491,33.171532 
	C124.666466,32.806568 124.600441,32.441601 123.729279,32.051105 
z"/>
<path fill="#FFFFFF" opacity="1.000000" stroke="none" 
	d="
M813.000000,237.000000 
	C813.000000,206.510849 813.086487,176.521179 812.904724,146.533127 
	C812.878052,142.141312 814.088989,140.776871 818.518616,140.901062 
	C829.339539,141.204376 840.178650,141.167648 851.002014,140.912994 
	C855.023499,140.818375 856.107361,142.119965 856.081421,146.053375 
	C855.919983,170.514679 856.000000,194.977585 856.000000,219.022507 
	C864.574890,210.270889 873.955994,201.936646 881.726196,192.303116 
	C886.424072,186.478622 891.361328,185.762604 897.820557,185.909073 
	C911.142212,186.211121 924.475708,185.969391 937.803833,186.036972 
	C939.559753,186.045868 941.313232,186.556366 943.067810,186.834564 
	C943.172058,187.315918 943.276367,187.797272 943.380615,188.278641 
	C926.198181,204.374374 909.015747,220.470123 891.500061,236.878036 
	C896.897949,244.015076 902.119141,250.994354 907.421692,257.911316 
	C914.921997,267.695160 922.467102,277.444794 930.024536,287.184570 
	C933.018066,291.042542 936.150269,294.793854 939.101013,298.683502 
	C939.922424,299.766388 940.320984,301.170105 940.913574,302.426636 
	C939.641296,302.951080 938.372437,303.921600 937.096130,303.931549 
	C923.102051,304.040649 909.105225,304.099762 895.113831,303.877289 
	C893.306152,303.848572 890.913147,302.608795 889.827698,301.155853 
	C880.734192,288.982971 871.883057,276.629028 862.907532,264.258911 
	C857.836426,267.312042 855.349976,271.217773 855.857117,277.455475 
	C856.462708,284.903503 855.905579,292.440216 856.046448,299.934845 
	C856.102783,302.929932 855.097107,304.082336 852.014221,304.049622 
	C840.353088,303.925903 828.687622,303.868927 817.028625,304.070923 
	C812.948120,304.141602 812.963562,301.902222 812.971313,298.978241 
	C813.025635,278.485596 813.000000,257.992767 813.000000,237.000000 
z"/>
<path fill="#FFFFFF" opacity="1.000000" stroke="none" 
	d="
M348.000000,258.000000 
	C347.999969,272.165497 347.901611,285.832184 348.067230,299.495667 
	C348.110077,303.028320 346.926849,304.120422 343.451141,304.064880 
	C332.454895,303.889099 321.447388,303.776642 310.458069,304.103394 
	C305.662628,304.245941 303.034851,303.270325 303.975586,297.912018 
	C304.074402,297.349274 303.849152,296.729584 303.908173,297.196930 
	C296.244537,299.971985 288.870148,303.743591 281.060944,305.228271 
	C267.149872,307.872986 253.887955,305.400696 242.552536,296.050110 
	C227.027954,283.243958 221.114548,266.384064 220.883209,246.707321 
	C220.727173,233.437408 222.100143,220.676041 229.032852,209.131622 
	C237.560715,194.930893 249.183762,185.536667 266.562561,183.816269 
	C278.668823,182.617828 289.678040,184.145508 299.784607,190.996216 
	C301.383545,192.080032 302.845917,193.365311 304.382233,194.565857 
	C304.548126,194.428986 304.940063,194.258453 304.943176,194.081131 
	C305.096558,185.301193 303.657654,186.004517 313.457001,186.000809 
	C323.289490,185.997101 333.126404,186.170715 342.952301,185.916351 
	C346.908020,185.813950 348.117157,187.003174 348.085052,191.006409 
	C347.907410,213.169739 348.000000,235.335236 348.000000,258.000000 
M289.890228,269.636353 
	C292.104462,268.406708 294.644562,267.538849 296.478607,265.887085 
	C306.379669,256.969940 306.610779,245.707733 303.414886,233.966354 
	C301.143646,225.622162 295.580231,220.150223 286.850952,219.097885 
	C278.051147,218.037048 271.335815,220.280197 266.784119,231.038437 
	C264.534912,236.354553 264.012787,242.779831 264.192657,248.657852 
	C264.472534,257.803711 267.715607,265.984650 277.559235,268.958099 
	C281.189056,270.054504 285.263550,269.678894 289.890228,269.636353 
z"/>
<path fill="#FFFFFF" opacity="1.000000" stroke="none" 
	d="
M387.013428,264.000061 
	C389.503265,265.089874 391.798157,265.911438 393.649170,267.317322 
	C400.561676,272.567535 408.697296,274.428955 416.939911,275.902863 
	C418.719757,276.221130 420.996094,275.795715 422.539185,274.870941 
	C424.317474,273.805237 426.815247,271.684845 426.678650,270.242340 
	C426.502563,268.382294 424.345154,265.805634 422.481079,265.163757 
	C413.707489,262.142609 404.637817,259.979614 395.870087,256.943542 
	C382.958588,252.472610 372.118408,245.693497 367.753845,231.396179 
	C363.082886,216.095032 370.238403,199.470673 383.431946,191.816330 
	C394.202393,185.567780 405.773071,182.992142 417.793640,183.162231 
	C435.042786,183.406311 451.244751,188.042801 465.537842,198.162613 
	C468.181732,200.034561 469.274780,202.215897 466.471069,205.096451 
	C460.823547,210.898880 455.302246,216.825409 449.788239,222.755966 
	C447.239990,225.496719 445.128845,225.407974 441.691711,223.497574 
	C434.764832,219.647552 427.301971,216.757401 420.031891,213.535187 
	C419.168701,213.152618 418.130096,213.032990 417.170593,213.023819 
	C413.147308,212.985382 408.937347,214.198563 408.408844,218.245758 
	C408.151093,220.219879 411.603851,223.838821 414.113281,224.809204 
	C423.947418,228.611969 434.126740,231.509308 444.077942,235.025696 
	C453.035553,238.190948 461.577087,242.539429 465.936096,251.436966 
	C471.358521,262.505096 470.655548,274.012543 463.975006,284.295227 
	C456.054504,296.486450 444.276459,303.075287 429.785309,305.047546 
	C410.936829,307.612732 392.732025,306.116180 375.772461,296.887451 
	C371.403046,294.509796 367.501373,291.198425 363.615173,288.033203 
	C361.086670,285.973816 361.215942,284.145477 364.198181,281.832672 
	C370.407135,277.017456 376.091766,271.530975 382.095947,266.443207 
	C383.374359,265.359924 385.096802,264.800720 387.013428,264.000061 
z"/>
<path fill="#FFFFFF" opacity="1.000000" stroke="none" 
	d="
M767.786560,186.016571 
	C776.183716,189.691940 784.317078,193.043488 792.068909,197.120255 
	C797.372070,199.909256 797.158447,202.066269 792.965515,206.585175 
	C788.063843,211.867996 783.391174,217.365128 778.674255,222.816971 
	C776.208862,225.666382 773.600952,225.609924 770.408142,223.967514 
	C763.333374,220.328156 756.236267,216.685974 748.912109,213.606628 
	C746.821167,212.727493 743.746155,213.286758 741.446167,214.100922 
	C739.698608,214.719574 737.775024,216.540100 737.156677,218.265533 
	C736.141235,221.099121 737.744324,223.290146 740.696411,224.270233 
	C748.440857,226.841309 756.361328,228.990707 763.876465,232.114624 
	C772.256348,235.598053 780.773621,239.208969 788.274841,244.201126 
	C794.123535,248.093491 796.705383,254.793961 797.131775,262.338623 
	C797.775208,273.723358 795.047913,283.697235 786.772400,291.637726 
	C777.038147,300.977905 765.029663,305.356384 751.706970,305.949219 
	C738.433655,306.539825 725.009705,306.567688 712.715210,300.831299 
	C705.656311,297.537781 699.344299,292.604218 692.819031,288.225800 
	C690.293030,286.530884 690.044373,284.126587 692.477417,282.028442 
	C699.033264,276.375122 705.527405,270.629761 712.390747,265.370911 
	C713.754700,264.325806 717.341858,264.393311 718.729492,265.466431 
	C726.215759,271.255463 734.970154,273.692871 743.849304,275.924347 
	C745.105164,276.239929 746.778687,276.473297 747.781982,275.904144 
	C750.326660,274.460632 752.600464,272.539612 754.982727,270.809814 
	C753.283020,268.659271 752.005981,265.424866 749.802734,264.565704 
	C743.704346,262.187622 737.024231,261.296844 730.934937,258.900879 
	C722.493164,255.579269 713.714233,252.395355 706.319824,247.338913 
	C699.317444,242.550568 695.953186,234.566635 694.911804,225.687241 
	C692.134094,202.003357 710.871887,189.164398 728.710693,185.006989 
	C741.673767,181.985886 754.544006,183.061722 767.786560,186.016571 
z"/>
<path fill="#FFFFFF" opacity="1.000000" stroke="none" 
	d="
M634.034546,463.026611 
	C633.457581,462.996704 633.268188,463.041504 633.127747,462.978027 
	C622.944275,458.378387 622.953857,458.382324 627.970703,448.233734 
	C629.038696,446.073303 630.154419,443.919373 630.997375,441.668579 
	C632.549194,437.525543 635.071838,437.244019 638.630615,439.207397 
	C646.058289,443.305267 653.757141,445.133698 662.408447,443.279358 
	C669.494568,441.760498 673.127258,437.878021 674.044495,430.955719 
	C674.102417,430.518402 674.625793,430.158600 674.759766,429.710968 
	C674.886963,429.286163 674.787109,428.793365 674.787109,428.027161 
	C664.885681,434.512421 654.168335,434.304291 643.561890,431.885956 
	C629.633972,428.710205 620.584778,416.789459 619.223206,403.672455 
	C618.306458,394.840698 618.122986,385.753357 621.881958,377.045502 
	C626.954834,365.294037 635.151001,358.281738 647.940552,355.827301 
	C656.756775,354.135315 664.562134,356.321167 672.521667,359.127319 
	C673.417725,359.443268 675.020081,360.098724 675.157837,359.880188 
	C678.714172,354.236603 684.183899,357.792480 688.688232,357.115448 
	C692.436707,356.551971 696.340881,357.102966 700.169189,356.965576 
	C702.926392,356.866608 704.043884,357.880829 704.036499,360.722137 
	C703.972534,385.220856 704.608459,409.740723 703.765808,434.210571 
	C703.280334,448.308411 695.583435,458.813110 682.101318,464.320801 
	C680.802551,464.851349 679.261719,464.966187 677.832031,464.971985 
	C665.666138,465.020966 653.498413,465.099731 641.335205,464.911987 
	C639.029480,464.876404 636.741272,463.700592 634.034546,463.026611 
M673.738525,387.208771 
	C669.948975,380.857880 664.243469,377.847412 659.026245,379.445923 
	C648.511841,382.667450 643.940125,397.242096 650.653198,406.139435 
	C656.219299,413.516693 664.854858,414.018829 671.196167,407.296021 
	C676.634949,401.529999 675.432495,394.772675 673.738525,387.208771 
z"/>
<path fill="#FFFFFF" opacity="1.000000" stroke="none" 
	d="
M559.000000,147.190948 
	C558.169556,141.972427 560.272034,140.758331 564.838623,140.896851 
	C575.491211,141.220016 586.162964,141.139191 596.820984,140.925156 
	C600.595154,140.849365 602.096741,141.707489 602.085999,145.871063 
	C601.953979,197.016541 601.963989,248.162567 602.072937,299.308167 
	C602.081055,303.132355 600.769470,304.133698 597.141846,304.069916 
	C586.149780,303.876678 575.145874,303.787384 564.159546,304.104340 
	C559.747559,304.231628 558.917358,302.594360 558.926270,298.608215 
	C559.038513,248.295609 559.000000,197.982681 559.000000,147.190948 
z"/>
<path fill="#FFFFFF" opacity="1.000000" stroke="none" 
	d="
M459.000793,435.000000 
	C453.335510,434.999969 448.165863,434.875397 443.006104,435.046844 
	C439.938263,435.148804 438.947906,433.966553 438.954956,430.954071 
	C439.028351,399.628082 439.030548,368.301849 438.952393,336.975891 
	C438.944672,333.884705 440.094513,332.944458 443.074768,332.955414 
	C465.402649,333.037506 487.731201,333.043213 510.058990,332.950745 
	C513.188477,332.937775 514.123718,334.164398 514.043152,337.110840 
	C513.892822,342.605469 513.811096,348.115906 514.066162,353.602783 
	C514.237061,357.278198 512.679382,358.100616 509.343201,358.057892 
	C497.681122,357.908447 486.012848,358.153168 474.353668,357.916656 
	C470.289856,357.834198 468.306396,358.865814 468.973541,363.200195 
	C469.148895,364.339569 469.105255,365.540344 468.979950,366.693085 
	C468.627899,369.932648 469.945557,371.108612 473.244720,371.057465 
	C483.406616,370.899719 493.578003,371.194885 503.734161,370.906708 
	C507.959351,370.786835 509.368103,372.098694 509.077362,376.292023 
	C508.743958,381.101105 508.844330,385.957825 509.053436,390.780975 
	C509.198090,394.117950 507.871735,395.101959 504.665619,395.054962 
	C494.503448,394.906067 484.334656,395.144562 474.175049,394.925018 
	C470.394897,394.843323 468.774963,395.700714 468.916504,399.878571 
	C469.319794,411.786469 467.433075,409.885742 478.922760,409.980072 
	C490.086121,410.071747 501.252380,410.104340 512.414001,409.937500 
	C515.839478,409.886322 517.236694,410.878326 517.063416,414.468140 
	C516.814697,419.621643 516.767639,424.809937 517.075012,429.957062 
	C517.312317,433.930542 515.982849,435.130981 511.987518,435.085571 
	C494.493805,434.886841 476.996582,435.000000 459.000793,435.000000 
z"/>
<path fill="#FFFFFF" opacity="1.000000" stroke="none" 
	d="
M675.000000,291.967255 
	C675.000000,304.000000 675.000000,304.000031 663.499756,304.000000 
	C654.172180,304.000000 644.841980,303.870728 635.518494,304.066406 
	C632.005310,304.140106 630.927734,302.958740 630.937500,299.469788 
	C631.038940,263.159241 631.038574,226.848145 630.937988,190.537567 
	C630.928345,187.058380 631.989624,185.878281 635.510681,185.933060 
	C647.000854,186.111755 658.498779,186.157944 669.986511,185.913925 
	C673.982422,185.829056 675.097900,187.080521 675.081116,191.035110 
	C674.939087,224.513794 675.000000,257.993347 675.000000,291.967255 
z"/>
<path fill="#FFFFFF" opacity="1.000000" stroke="none" 
	d="
M529.000000,263.000000 
	C529.000000,275.492126 528.893738,287.485779 529.066101,299.475433 
	C529.116394,302.977203 527.978760,304.121002 524.475830,304.066162 
	C513.152710,303.888763 501.823212,303.885590 490.500244,304.067535 
	C486.965454,304.124359 485.929108,302.917847 485.938599,299.452240 
	C486.038086,263.143036 486.039307,226.833344 485.937256,190.524155 
	C485.927429,187.027634 487.020294,185.877686 490.523865,185.933823 
	C501.680328,186.112549 512.845093,186.163361 523.998840,185.913177 
	C528.012573,185.823166 529.108887,187.108688 529.081726,191.047455 
	C528.917542,214.864029 529.000000,238.682297 529.000000,263.000000 
z"/>
<path fill="#FFFFFF" opacity="1.000000" stroke="none" 
	d="
M608.000000,413.999542 
	C607.999939,419.999146 607.878418,425.502625 608.047607,430.997162 
	C608.142212,434.069702 606.962585,435.112640 603.948608,435.046844 
	C597.118896,434.897736 590.277893,434.833160 583.452942,435.067810 
	C579.846191,435.191772 578.900391,433.803558 578.938721,430.398254 
	C579.088623,417.067261 578.992615,403.733521 579.004150,390.400818 
	C579.008057,385.961487 578.269165,382.024475 573.546997,379.974396 
	C568.353577,377.719727 565.224060,380.867981 562.388184,384.228210 
	C561.384338,385.417694 561.069641,387.492157 561.057190,389.167175 
	C560.955505,402.832458 560.893433,416.500183 561.070984,430.163940 
	C561.118408,433.819397 560.091248,435.215729 556.280762,435.074005 
	C549.290710,434.814087 542.280884,434.873932 535.285950,435.055634 
	C532.023682,435.140411 530.930115,434.006500 530.944824,430.732544 
	C531.048706,407.567413 531.049866,384.401398 530.944031,361.236267 
	C530.928955,357.928955 532.087036,356.848297 535.317322,356.946014 
	C541.478027,357.132294 547.658020,357.207367 553.811218,356.922791 
	C557.548828,356.749939 559.709900,357.595367 558.915649,362.566071 
	C565.860352,357.871948 572.796997,354.907440 580.529236,355.053680 
	C597.549377,355.375610 607.645447,363.906494 607.967896,382.501648 
	C608.146973,392.831390 608.000000,403.166840 608.000000,413.999542 
z"/>
<path fill="#FFFFFF" opacity="1.000000" stroke="none" 
	d="
M806.509644,357.180878 
	C816.679871,354.423065 826.178223,353.764313 835.307129,359.658203 
	C842.754211,364.466217 845.627258,371.716095 845.855530,379.764404 
	C846.332336,396.579590 845.903625,413.418701 846.074280,430.245667 
	C846.112305,433.997772 844.910461,435.209137 841.201233,435.070221 
	C834.545715,434.821045 827.870300,434.864319 821.210999,435.057037 
	C817.869080,435.153809 816.915771,433.855713 816.945618,430.658875 
	C817.073364,416.997162 817.010620,403.333557 816.993835,389.670654 
	C816.988525,385.355377 815.967834,381.627441 811.310669,379.984528 
	C805.808960,378.043823 799.038757,382.577362 799.016785,388.390076 
	C798.964600,402.219421 798.878784,416.050812 799.078430,429.877472 
	C799.133972,433.721405 798.187012,435.270630 794.067993,435.086029 
	C787.083984,434.773010 780.073669,434.902679 773.078552,435.045593 
	C770.097656,435.106537 768.939819,434.122253 768.951599,431.027313 
	C769.040466,407.700745 769.037231,384.373535 768.954224,361.046906 
	C768.943481,358.035461 769.936890,356.870850 773.004639,356.951782 
	C779.165344,357.114288 785.344727,357.228638 791.494385,356.921692 
	C795.776184,356.707977 797.919128,357.912323 796.928223,362.587280 
	C800.119202,360.767944 803.125549,359.053864 806.509644,357.180878 
z"/>
<path fill="#FFFFFF" opacity="1.000000" stroke="none" 
	d="
M898.523071,410.991852 
	C904.646179,410.962891 910.382141,411.629944 915.332214,407.474060 
	C916.265686,406.690369 919.612854,407.230499 920.573914,408.301483 
	C924.575439,412.760773 928.280090,417.529755 931.610413,422.508453 
	C932.212524,423.408630 931.063660,426.590027 929.841675,427.419128 
	C922.273499,432.554199 914.038574,436.024750 904.641663,436.015076 
	C895.510254,436.005646 886.282227,436.683411 877.878967,431.982513 
	C864.653198,424.583740 857.430969,413.547821 856.948975,398.146942 
	C856.559814,385.714691 859.541565,374.510040 868.764954,365.869537 
	C878.566895,356.687103 890.291870,353.911896 903.710632,355.851501 
	C919.119995,358.078796 928.723694,366.682129 933.190918,380.925873 
	C934.956177,386.554169 934.529602,392.885773 934.972229,398.906616 
	C935.214172,402.197845 932.792175,402.011353 930.546326,402.008514 
	C916.885437,401.991425 903.224548,401.998108 889.563660,402.005737 
	C888.790344,402.006165 888.016968,402.085297 886.673279,402.159210 
	C889.342224,407.210754 893.313721,409.601990 898.523071,410.991852 
M887.623291,387.136749 
	C888.728210,387.748962 889.915466,388.997314 890.924316,388.866821 
	C896.183594,388.186493 901.397400,387.155548 906.997192,386.182251 
	C906.727844,382.730560 903.844299,380.137939 900.824646,379.622864 
	C897.498718,379.055511 893.594971,380.056000 890.379578,381.410278 
	C888.712891,382.112274 887.989868,385.054688 887.623291,387.136749 
z"/>
<path fill="#FFFFFF" opacity="1.000000" stroke="none" 
	d="
M751.000000,410.000000 
	C750.999939,417.326508 750.894775,424.155365 751.047852,430.978485 
	C751.116028,434.020203 750.011108,435.113373 746.974365,435.047791 
	C739.984558,434.896851 732.986938,434.893646 725.997375,435.048889 
	C722.927795,435.117035 721.943909,433.955048 721.954529,430.951080 
	C722.036987,407.641266 722.038452,384.330872 721.953369,361.021118 
	C721.942322,357.985077 722.987732,356.884460 726.025208,356.952301 
	C732.848328,357.104767 739.682495,357.159943 746.501526,356.934265 
	C750.042358,356.817078 751.095337,358.083344 751.063904,361.548370 
	C750.919006,377.531128 751.000000,393.515930 751.000000,410.000000 
z"/>
<path fill="#FFFFFF" opacity="1.000000" stroke="none" 
	d="
M629.154663,153.431122 
	C625.913574,141.272675 629.095337,130.487106 641.241028,126.003265 
	C650.724854,122.502113 666.057556,123.013176 673.327148,131.802551 
	C678.613342,138.193970 678.984985,145.567230 676.505371,152.811569 
	C674.159729,159.664703 668.608887,164.013672 661.354187,164.865479 
	C655.640930,165.536285 649.725281,165.525574 644.009827,164.864288 
	C637.243896,164.081436 632.005615,160.422028 629.154663,153.431122 
z"/>
<path fill="#FFFFFF" opacity="1.000000" stroke="none" 
	d="
M518.162415,125.635162 
	C527.171021,128.051117 531.728821,133.964020 532.081482,142.481750 
	C532.387634,149.874008 531.896606,156.888367 525.091858,161.285965 
	C517.837891,165.973877 509.580566,167.123962 501.209076,165.540070 
	C497.233856,164.787933 493.089050,163.290070 489.776917,161.024841 
	C483.310852,156.602600 481.302002,147.189636 483.510834,138.874466 
	C485.278076,132.221848 493.612488,124.990219 500.496216,125.018211 
	C506.286072,125.041756 512.075317,125.226311 518.162415,125.635162 
z"/>
<path fill="#FFFFFF" opacity="1.000000" stroke="none" 
	d="
M735.119263,317.000000 
	C739.647888,317.748962 744.333374,317.462646 747.654114,319.453125 
	C755.624634,324.230804 755.200317,336.878235 747.117249,342.336029 
	C746.455627,342.782776 745.702759,343.430908 744.997742,343.423981 
	C739.011902,343.365173 732.724609,344.280792 727.119263,342.745087 
	C720.187744,340.846069 718.185669,334.526398 720.026245,326.080872 
	C720.980469,321.701874 727.355042,317.119110 732.661926,317.002014 
	C733.326111,316.987366 733.990967,317.000000 735.119263,317.000000 
z"/>
<path fill="#FEFEFE" opacity="1.000000" stroke="none" 
	d="
M121.000000,27.000000 
	C119.445595,26.545576 117.891197,26.091152 116.404556,25.171888 
	C116.648216,24.193762 116.824120,23.680477 117.000023,23.167191 
	C118.239525,23.180487 119.479019,23.193781 120.868614,23.935324 
	C121.012474,25.442381 121.006233,26.221191 121.000000,27.000000 
z"/>
<path fill="#FEFEFE" opacity="1.000000" stroke="none" 
	d="
M121.256149,26.811527 
	C121.006233,26.221191 121.012474,25.442381 121.030518,24.274328 
	C121.042328,23.885084 121.527855,24.003778 121.764099,24.085293 
	C121.837669,24.985556 121.674995,25.804306 121.256149,26.811527 
z"/>
<path fill="#FEFEFE" opacity="1.000000" stroke="none" 
	d="
M116.743820,23.096272 
	C116.824120,23.680477 116.648216,24.193762 116.235855,24.853823 
	C115.929817,24.528358 115.860237,24.056120 115.884468,23.380829 
	C116.148056,23.126968 116.317841,23.076160 116.743820,23.096272 
z"/>
<path fill="#000000" opacity="0.000000" stroke="none" 
	d="
M85.719620,155.777985 
	C79.134880,162.696625 76.443382,170.991180 76.120247,179.818405 
	C75.651222,192.631088 75.594406,205.489944 76.106873,218.299301 
	C76.693443,232.961060 84.436432,249.504745 99.740349,253.141388 
	C103.187874,253.960617 106.897903,254.095734 110.460159,253.937897 
	C125.008820,253.293259 138.032761,267.179504 137.043076,280.423431 
	C136.479294,287.968140 137.351852,295.759125 135.795029,303.059021 
	C133.274490,314.877808 121.438568,321.919128 110.021889,321.942963 
	C104.956932,321.953552 99.883392,321.430817 94.826454,321.000732 
	C82.570847,319.958374 72.920151,306.038513 72.942360,293.939728 
	C73.063492,227.957825 73.052849,161.975449 72.892136,95.993706 
	C72.880241,91.111847 74.260094,89.664757 79.060524,89.897705 
	C86.873337,90.276840 94.718864,90.075645 102.549004,89.983971 
	C117.999718,89.803062 132.898102,74.856003 133.135834,59.477917 
	C133.280045,50.149033 131.630707,41.759998 125.427795,34.521610 
	C125.832268,34.186760 126.236748,33.851910 126.641220,33.517056 
	C128.758514,35.979885 131.654236,38.124809 132.818909,40.976681 
	C134.788940,45.800587 136.718124,51.051037 136.817413,56.158054 
	C137.244781,78.143784 136.854111,100.143944 137.058578,122.136086 
	C137.168793,133.991486 124.946030,146.472305 112.970268,146.023148 
	C106.277512,145.772125 99.457748,145.440125 93.499352,149.250854 
	C90.771439,150.995483 88.474976,153.414734 85.719620,155.777985 
z"/>
<path fill="#000000" opacity="0.000000" stroke="none" 
	d="
M90.787155,50.289062 
	C84.652412,43.763454 85.930733,37.443645 93.504341,33.881180 
	C98.165657,31.688601 101.726768,34.435951 103.372643,37.359200 
	C104.891121,40.056194 105.057030,45.071072 103.485535,47.634933 
	C99.963478,53.381073 97.275795,53.476231 90.787155,50.289062 
z"/>
<path fill="#000000" opacity="0.000000" stroke="none" 
	d="
M124.131851,32.063873 
	C124.600441,32.441601 124.666466,32.806568 124.732491,33.171532 
	C124.356407,33.114319 123.944595,33.125443 123.625771,32.958729 
	C123.528625,32.907932 123.687599,32.367363 124.131851,32.063873 
z"/>
<path fill="#000000" opacity="0.000000" stroke="none" 
	d="
M289.512726,269.805542 
	C285.263550,269.678894 281.189056,270.054504 277.559235,268.958099 
	C267.715607,265.984650 264.472534,257.803711 264.192657,248.657852 
	C264.012787,242.779831 264.534912,236.354553 266.784119,231.038437 
	C271.335815,220.280197 278.051147,218.037048 286.850952,219.097885 
	C295.580231,220.150223 301.143646,225.622162 303.414886,233.966354 
	C306.610779,245.707733 306.379669,256.969940 296.478607,265.887085 
	C294.644562,267.538849 292.104462,268.406708 289.512726,269.805542 
z"/>
<path fill="#000000" opacity="0.000000" stroke="none" 
	d="
M673.861572,387.601807 
	C675.432495,394.772675 676.634949,401.529999 671.196167,407.296021 
	C664.854858,414.018829 656.219299,413.516693 650.653198,406.139435 
	C643.940125,397.242096 648.511841,382.667450 659.026245,379.445923 
	C664.243469,377.847412 669.948975,380.857880 673.861572,387.601807 
z"/>
<path fill="#000000" opacity="0.000000" stroke="none" 
	d="
M887.231934,387.060852 
	C887.989868,385.054688 888.712891,382.112274 890.379578,381.410278 
	C893.594971,380.056000 897.498718,379.055511 900.824646,379.622864 
	C903.844299,380.137939 906.727844,382.730560 906.997192,386.182251 
	C901.397400,387.155548 896.183594,388.186493 890.924316,388.866821 
	C889.915466,388.997314 888.728210,387.748962 887.231934,387.060852 
z"/>
</svg>