<svg id="visual" viewBox="0 0 2700 200" width="2700" height="200" xmlns="http://www.w3.org/2000/svg" xmlns:xlink="http://www.w3.org/1999/xlink" version="1.1"><rect x="0" y="0" width="2700" height="200" fill="#ff3860"></rect><path d="M0 61L14.5 68C29 75 58 89 87 105.8C116 122.7 145 142.3 174 149.3C203 156.3 232 150.7 261 137.8C290 125 319 105 348 102.3C377 99.7 406 114.3 435.2 111.7C464.3 109 493.7 89 522.8 99.2C552 109.3 581 149.7 610 154.3C639 159 668 128 697 115.8C726 103.7 755 110.3 784 119.3C813 128.3 842 139.7 871 136C900 132.3 929 113.7 958 115.7C987 117.7 1016 140.3 1045 139.3C1074 138.3 1103 113.7 1132 99.2C1161 84.7 1190 80.3 1219 80.5C1248 80.7 1277 85.3 1306.2 88.2C1335.3 91 1364.7 92 1393.8 97.7C1423 103.3 1452 113.7 1481 121.7C1510 129.7 1539 135.3 1568 131.3C1597 127.3 1626 113.7 1655 113.2C1684 112.7 1713 125.3 1742 140C1771 154.7 1800 171.3 1829 167.7C1858 164 1887 140 1916 121.3C1945 102.7 1974 89.3 2003 77C2032 64.7 2061 53.3 2090 59.3C2119 65.3 2148 88.7 2177.2 98.8C2206.3 109 2235.7 106 2264.8 104.3C2294 102.7 2323 102.3 2352 114.7C2381 127 2410 152 2439 147.3C2468 142.7 2497 108.3 2526 96.3C2555 84.3 2584 94.7 2613 101.7C2642 108.7 2671 112.3 2685.5 114.2L2700 116L2700 201L2685.5 201C2671 201 2642 201 2613 201C2584 201 2555 201 2526 201C2497 201 2468 201 2439 201C2410 201 2381 201 2352 201C2323 201 2294 201 2264.8 201C2235.7 201 2206.3 201 2177.2 201C2148 201 2119 201 2090 201C2061 201 2032 201 2003 201C1974 201 1945 201 1916 201C1887 201 1858 201 1829 201C1800 201 1771 201 1742 201C1713 201 1684 201 1655 201C1626 201 1597 201 1568 201C1539 201 1510 201 1481 201C1452 201 1423 201 1393.8 201C1364.7 201 1335.3 201 1306.2 201C1277 201 1248 201 1219 201C1190 201 1161 201 1132 201C1103 201 1074 201 1045 201C1016 201 987 201 958 201C929 201 900 201 871 201C842 201 813 201 784 201C755 201 726 201 697 201C668 201 639 201 610 201C581 201 552 201 522.8 201C493.7 201 464.3 201 435.2 201C406 201 377 201 348 201C319 201 290 201 261 201C232 201 203 201 174 201C145 201 116 201 87 201C58 201 29 201 14.5 201L0 201Z" fill="#5DA9E9" stroke-linecap="round" stroke-linejoin="miter"></path></svg>