<svg version="1.1" id="Layer_1" xmlns="http://www.w3.org/2000/svg" xmlns:xlink="http://www.w3.org/1999/xlink" x="0px" y="0px"
	 width="100%" viewBox="0 0 911 1026" enable-background="new 0 0 911 1026" xml:space="preserve">
<path fill="#659AD2" opacity="1.000000" stroke="none" 
	d="
M437.000000,1.000003 
	C449.687561,1.000000 462.375122,1.000000 475.202820,1.312764 
	C475.833374,2.052835 476.254486,2.656681 476.824738,2.880710 
	C484.182861,5.771155 491.977386,7.846290 498.858826,11.599422 
	C519.980591,23.119276 540.811768,35.177841 561.649109,47.211861 
	C587.951721,62.402134 614.106812,77.847557 640.405090,93.045357 
	C661.383850,105.168999 682.535583,116.993370 703.512756,129.119812 
	C728.552368,143.594666 753.448914,158.317062 778.482361,172.802643 
	C794.515320,182.080124 810.723328,191.054840 826.779907,200.292099 
	C841.287415,208.638199 855.705322,217.140228 870.145203,225.603485 
	C883.391235,233.366974 894.031311,243.639938 900.432373,257.726471 
	C877.603455,270.733398 855.106750,283.622986 832.636292,296.558197 
	C794.758972,318.362396 756.898315,340.195496 719.014343,361.657227 
	C718.377869,360.125824 717.810059,358.922333 717.129822,357.786133 
	C701.180969,331.145020 681.837219,307.235413 658.335083,286.947632 
	C586.938660,225.316086 504.259491,200.078156 410.886139,213.525208 
	C340.863342,223.609467 281.832703,255.977448 233.538528,307.719818 
	C155.411850,391.424774 131.421906,514.489197 172.764191,621.313782 
	C178.628601,636.466858 186.403198,650.880737 192.980087,665.839783 
	C151.816528,689.639282 110.983597,713.265259 70.109215,736.819336 
	C50.830959,747.928467 31.473215,758.899658 11.985376,769.614136 
	C8.998729,762.781372 6.221822,756.248291 3.313956,749.774048 
	C2.838885,748.716248 1.785885,747.918152 0.999998,747.000000 
	C1.000000,591.645752 1.000000,436.291534 1.311112,280.775574 
	C4.731473,273.504333 7.554182,266.251770 11.016424,259.318542 
	C16.347570,248.642807 23.369701,239.140121 33.308121,232.287247 
	C40.112099,227.595657 47.254910,223.378265 54.373272,219.163437 
	C68.071617,211.052582 81.827248,203.036942 95.620964,195.089157 
	C107.746155,188.102798 119.990623,181.323517 132.119705,174.343811 
	C148.442963,164.950577 164.698746,155.440186 180.997131,146.003616 
	C194.787338,138.019272 208.606949,130.085693 222.395340,122.098198 
	C238.416962,112.817024 254.400497,103.470039 270.434143,94.209778 
	C286.755646,84.783279 303.122650,75.435684 319.460968,66.038300 
	C333.399017,58.021484 347.321930,49.978313 361.256592,41.955593 
	C373.236511,35.058270 385.217682,28.163099 397.209106,21.285828 
	C409.682037,14.132426 421.327057,5.230193 436.080170,2.845282 
	C436.475891,2.781319 436.697327,1.639296 437.000000,1.000003 
z"/>
<path fill="#004482" opacity="1.000000" stroke="none" 
	d="
M12.151495,769.933411 
	C31.473215,758.899658 50.830959,747.928467 70.109215,736.819336 
	C110.983597,713.265259 151.816528,689.639282 193.254211,666.046997 
	C194.212631,666.602478 194.600891,667.142944 194.951569,667.706787 
	C249.950455,756.130188 328.909271,806.517395 432.849945,816.088562 
	C488.498413,821.212830 541.527710,810.237549 591.531494,785.324280 
	C645.903503,758.234680 688.339172,718.233154 719.598999,666.005493 
	C720.581360,666.233826 721.279053,666.310181 721.835999,666.631042 
	C745.590210,680.308838 769.335876,694.001709 793.073975,707.707336 
	C822.422180,724.651978 851.793701,741.556641 881.083252,758.602051 
	C887.634644,762.414734 893.887329,766.740723 900.188354,771.136841 
	C894.864746,780.976257 888.067139,789.334961 879.072510,795.351746 
	C868.289795,802.564636 857.006409,809.047302 845.789856,815.588867 
	C829.693542,824.976318 813.433105,834.081970 797.295166,843.398804 
	C781.194031,852.694397 765.185486,862.150513 749.084839,871.447021 
	C732.810608,880.843689 716.446228,890.084229 700.171143,899.479492 
	C684.069641,908.774536 668.051697,918.214417 651.957825,927.522827 
	C635.549011,937.013550 619.077637,946.395874 602.660950,955.873108 
	C586.688782,965.093750 570.757629,974.385498 554.796753,983.625732 
	C540.677246,991.799927 526.597717,1000.045532 512.396179,1008.075134 
	C499.791534,1015.201782 487.740784,1023.692261 472.666046,1025.152710 
	C472.056763,1025.211670 471.552948,1026.359497 471.000000,1027.000000 
	C461.312439,1027.000000 451.624878,1027.000000 441.468750,1026.607910 
	C437.779877,1025.200073 434.381409,1024.553589 431.371094,1023.102356 
	C420.129944,1017.682556 408.800049,1012.387817 397.899384,1006.333313 
	C375.296539,993.778931 352.896118,980.856567 330.506958,967.921997 
	C305.564362,953.512207 280.762848,938.858337 255.830597,924.430542 
	C239.862045,915.189819 223.721130,906.247192 207.741196,897.025879 
	C182.362061,882.380920 157.047379,867.624207 131.716370,852.895996 
	C117.758316,844.780273 103.843346,836.590393 89.870979,828.499451 
	C74.033714,819.328613 58.187057,810.173035 42.282406,801.119751 
	C29.169353,793.655518 19.233713,783.190002 12.151495,769.933411 
z"/>
<path fill="#01599C" opacity="1.000000" stroke="none" 
	d="
M900.277588,770.830383 
	C893.887329,766.740723 887.634644,762.414734 881.083252,758.602051 
	C851.793701,741.556641 822.422180,724.651978 793.073975,707.707336 
	C769.335876,694.001709 745.590210,680.308838 721.835999,666.631042 
	C721.279053,666.310181 720.581360,666.233826 719.443420,665.691040 
	C718.804626,665.238342 718.680603,665.122742 718.537659,665.039917 
	C675.988159,640.371826 633.441589,615.698914 590.861084,591.084412 
	C589.844788,590.496887 588.448792,590.566162 587.103394,589.986389 
	C585.713135,588.625549 584.556641,587.422791 583.169556,586.616882 
	C562.304993,574.493652 541.430481,562.387329 520.516602,550.349365 
	C499.313385,538.144836 478.064362,526.020020 457.064453,513.606750 
	C498.023376,489.815857 538.760498,466.290955 579.466614,442.712524 
	C582.148560,441.158997 584.593933,439.196930 587.485962,437.475952 
	C588.575989,437.246735 589.388611,437.068481 590.074707,436.671539 
	C633.066589,411.797852 676.048157,386.906311 719.030640,362.016449 
	C756.898315,340.195496 794.758972,318.362396 832.636292,296.558197 
	C855.106750,283.622986 877.603455,270.733398 900.747070,257.953613 
	C903.973328,264.120392 906.474487,270.186584 909.157166,276.171509 
	C909.791992,277.587830 911.036133,278.731110 912.000000,280.000000 
	C912.000000,435.354218 912.000000,590.708435 911.621033,746.426270 
	C910.577576,748.031555 909.834595,749.238281 909.261780,750.520996 
	C906.243408,757.280273 903.268005,764.058655 900.277588,770.830383 
M785.438171,501.740967 
	C785.438171,511.170715 785.438171,520.600464 785.438171,530.569031 
	C797.013123,530.569031 807.902161,530.569031 819.288208,530.569031 
	C819.288208,542.026794 819.288208,552.939453 819.288208,563.864380 
	C830.729553,563.864380 841.653809,563.864380 853.021912,563.864380 
	C853.021912,552.681396 853.021912,541.751709 853.021912,530.197021 
	C864.500610,530.197021 875.543640,530.197021 886.498413,530.197021 
	C886.498413,518.785583 886.498413,508.014221 886.498413,496.770142 
	C875.297729,496.770142 864.374817,496.770142 852.870361,496.770142 
	C852.870361,485.258789 852.870361,474.210968 852.870361,463.290619 
	C841.349731,463.290619 830.425964,463.290619 819.043335,463.290619 
	C819.043335,474.496582 819.043335,485.413422 819.043335,496.796021 
	C808.793884,496.796021 799.000488,496.922394 789.213684,496.724426 
	C785.980469,496.659027 785.047729,497.909698 785.438171,501.740967 
M689.066040,530.417236 
	C692.355225,529.935364 692.862610,531.702271 692.823975,534.528198 
	C692.690430,544.288025 692.772522,554.050781 692.772522,563.778198 
	C704.333618,563.778198 715.238586,563.778198 726.680542,563.778198 
	C726.680542,552.531067 726.680542,541.626587 726.680542,530.374207 
	C738.000732,530.374207 748.783203,530.374207 759.828857,530.374207 
	C759.828857,519.102722 759.828857,508.197815 759.828857,496.779938 
	C748.751709,496.779938 737.849731,496.779938 726.475403,496.779938 
	C726.475403,485.358826 726.475403,474.433472 726.475403,463.391144 
	C714.964722,463.391144 703.943481,463.391144 692.443481,463.391144 
	C692.443481,474.702271 692.443481,485.621216 692.443481,496.998413 
	C681.054993,496.998413 670.144897,496.998413 659.314209,496.998413 
	C659.314209,508.390747 659.314209,519.298584 659.314209,530.416077 
	C669.149292,530.416077 678.643494,530.416077 689.066040,530.417236 
z"/>
<path fill="#000000" opacity="1.000000" stroke="none" 
	d="
M11.985376,769.614136 
	C19.233713,783.190002 29.169353,793.655518 42.282406,801.119751 
	C58.187057,810.173035 74.033714,819.328613 89.870979,828.499451 
	C103.843346,836.590393 117.758316,844.780273 131.716370,852.895996 
	C157.047379,867.624207 182.362061,882.380920 207.741196,897.025879 
	C223.721130,906.247192 239.862045,915.189819 255.830597,924.430542 
	C280.762848,938.858337 305.564362,953.512207 330.506958,967.921997 
	C352.896118,980.856567 375.296539,993.778931 397.899384,1006.333313 
	C408.800049,1012.387817 420.129944,1017.682556 431.371094,1023.102356 
	C434.381409,1024.553589 437.779877,1025.200073 441.000061,1026.607910 
	C294.422455,1027.000000 147.844940,1027.000000 1.000000,1027.000000 
	C1.000000,933.979248 1.000000,840.958313 0.999998,747.468628 
	C1.785885,747.918152 2.838885,748.716248 3.313956,749.774048 
	C6.221822,756.248291 8.998729,762.781372 11.985376,769.614136 
z"/>
<path fill="#000000" opacity="1.000000" stroke="none" 
	d="
M900.188354,771.136841 
	C903.268005,764.058655 906.243408,757.280273 909.261780,750.520996 
	C909.834595,749.238281 910.577576,748.031555 911.621033,746.894897 
	C912.000000,840.276672 912.000000,933.553406 912.000000,1027.000000 
	C765.312500,1027.000000 618.624878,1027.000000 471.468658,1027.000000 
	C471.552948,1026.359497 472.056763,1025.211670 472.666046,1025.152710 
	C487.740784,1023.692261 499.791534,1015.201782 512.396179,1008.075134 
	C526.597717,1000.045532 540.677246,991.799927 554.796753,983.625732 
	C570.757629,974.385498 586.688782,965.093750 602.660950,955.873108 
	C619.077637,946.395874 635.549011,937.013550 651.957825,927.522827 
	C668.051697,918.214417 684.069641,908.774536 700.171143,899.479492 
	C716.446228,890.084229 732.810608,880.843689 749.084839,871.447021 
	C765.185486,862.150513 781.194031,852.694397 797.295166,843.398804 
	C813.433105,834.081970 829.693542,824.976318 845.789856,815.588867 
	C857.006409,809.047302 868.289795,802.564636 879.072510,795.351746 
	C888.067139,789.334961 894.864746,780.976257 900.188354,771.136841 
z"/>
<path fill="#000000" opacity="1.000000" stroke="none" 
	d="
M436.531342,1.000003 
	C436.697327,1.639296 436.475891,2.781319 436.080170,2.845282 
	C421.327057,5.230193 409.682037,14.132426 397.209106,21.285828 
	C385.217682,28.163099 373.236511,35.058270 361.256592,41.955593 
	C347.321930,49.978313 333.399017,58.021484 319.460968,66.038300 
	C303.122650,75.435684 286.755646,84.783279 270.434143,94.209778 
	C254.400497,103.470039 238.416962,112.817024 222.395340,122.098198 
	C208.606949,130.085693 194.787338,138.019272 180.997131,146.003616 
	C164.698746,155.440186 148.442963,164.950577 132.119705,174.343811 
	C119.990623,181.323517 107.746155,188.102798 95.620964,195.089157 
	C81.827248,203.036942 68.071617,211.052582 54.373272,219.163437 
	C47.254910,223.378265 40.112099,227.595657 33.308121,232.287247 
	C23.369701,239.140121 16.347570,248.642807 11.016424,259.318542 
	C7.554182,266.251770 4.731473,273.504333 1.311112,280.306915 
	C1.000000,187.056915 1.000000,94.113823 1.000000,1.000000 
	C146.020844,1.000000 291.041779,1.000000 436.531342,1.000003 
z"/>
<path fill="#000000" opacity="1.000000" stroke="none" 
	d="
M912.000000,279.531372 
	C911.036133,278.731110 909.791992,277.587830 909.157166,276.171509 
	C906.474487,270.186584 903.973328,264.120392 901.091064,257.856750 
	C894.031311,243.639938 883.391235,233.366974 870.145203,225.603485 
	C855.705322,217.140228 841.287415,208.638199 826.779907,200.292099 
	C810.723328,191.054840 794.515320,182.080124 778.482361,172.802643 
	C753.448914,158.317062 728.552368,143.594666 703.512756,129.119812 
	C682.535583,116.993370 661.383850,105.168999 640.405090,93.045357 
	C614.106812,77.847557 587.951721,62.402134 561.649109,47.211861 
	C540.811768,35.177841 519.980591,23.119276 498.858826,11.599422 
	C491.977386,7.846290 484.182861,5.771155 476.824738,2.880710 
	C476.254486,2.656681 475.833374,2.052835 475.671478,1.312764 
	C621.244385,1.000000 766.488708,1.000000 912.000000,1.000000 
	C912.000000,93.687393 912.000000,186.375031 912.000000,279.531372 
z"/>
<path fill="#FFFFFF" opacity="1.000000" stroke="none" 
	d="
M587.229858,590.329041 
	C588.448792,590.566162 589.844788,590.496887 590.861084,591.084412 
	C633.441589,615.698914 675.988159,640.371826 718.537659,665.039917 
	C718.680603,665.122742 718.804626,665.238342 719.093018,665.653076 
	C688.339172,718.233154 645.903503,758.234680 591.531494,785.324280 
	C541.527710,810.237549 488.498413,821.212830 432.849945,816.088562 
	C328.909271,806.517395 249.950455,756.130188 194.951569,667.706787 
	C194.600891,667.142944 194.212631,666.602478 193.567810,665.843872 
	C186.403198,650.880737 178.628601,636.466858 172.764191,621.313782 
	C131.421906,514.489197 155.411850,391.424774 233.538528,307.719818 
	C281.832703,255.977448 340.863342,223.609467 410.886139,213.525208 
	C504.259491,200.078156 586.938660,225.316086 658.335083,286.947632 
	C681.837219,307.235413 701.180969,331.145020 717.129822,357.786133 
	C717.810059,358.922333 718.377869,360.125824 719.014343,361.657227 
	C676.048157,386.906311 633.066589,411.797852 590.074707,436.671539 
	C589.388611,437.068481 588.575989,437.246735 587.518677,437.138397 
	C586.591919,435.579254 586.034973,434.367798 585.336792,433.244110 
	C540.749878,361.483307 445.160553,340.139587 374.213409,386.093323 
	C305.785065,430.415588 284.054230,521.585693 325.729095,590.470459 
	C367.952820,661.207214 456.452026,685.878357 528.471130,647.103699 
	C553.322205,633.724060 573.213562,615.018311 587.229858,590.329041 
z"/>
<path fill="#659AD2" opacity="1.000000" stroke="none" 
	d="
M325.577057,590.143616 
	C284.054230,521.585693 305.785065,430.415588 374.213409,386.093323 
	C445.160553,340.139587 540.749878,361.483307 585.336792,433.244110 
	C586.034973,434.367798 586.591919,435.579254 587.182129,437.087341 
	C584.593933,439.196930 582.148560,441.158997 579.466614,442.712524 
	C538.760498,466.290955 498.023376,489.815857 456.725281,513.688599 
	C413.765045,538.458618 371.369843,562.887878 328.996552,587.355103 
	C327.739197,588.081116 326.711731,589.205139 325.577057,590.143616 
z"/>
<path fill="#004482" opacity="1.000000" stroke="none" 
	d="
M325.729095,590.470459 
	C326.711731,589.205139 327.739197,588.081116 328.996552,587.355103 
	C371.369843,562.887878 413.765045,538.458618 456.496216,513.942017 
	C478.064362,526.020020 499.313385,538.144836 520.516602,550.349365 
	C541.430481,562.387329 562.304993,574.493652 583.169556,586.616882 
	C584.556641,587.422791 585.713135,588.625549 587.103394,589.986389 
	C573.213562,615.018311 553.322205,633.724060 528.471130,647.103699 
	C456.452026,685.878357 367.952820,661.207214 325.729095,590.470459 
z"/>
<path fill="#FDFEFE" opacity="1.000000" stroke="none" 
	d="
M785.438477,501.269684 
	C785.047729,497.909698 785.980469,496.659027 789.213684,496.724426 
	C799.000488,496.922394 808.793884,496.796021 819.043335,496.796021 
	C819.043335,485.413422 819.043335,474.496582 819.043335,463.290619 
	C830.425964,463.290619 841.349731,463.290619 852.870361,463.290619 
	C852.870361,474.210968 852.870361,485.258789 852.870361,496.770142 
	C864.374817,496.770142 875.297729,496.770142 886.498413,496.770142 
	C886.498413,508.014221 886.498413,518.785583 886.498413,530.197021 
	C875.543640,530.197021 864.500610,530.197021 853.021912,530.197021 
	C853.021912,541.751709 853.021912,552.681396 853.021912,563.864380 
	C841.653809,563.864380 830.729553,563.864380 819.288208,563.864380 
	C819.288208,552.939453 819.288208,542.026794 819.288208,530.569031 
	C807.902161,530.569031 797.013123,530.569031 785.438171,530.569031 
	C785.438171,520.600464 785.438171,511.170715 785.438477,501.269684 
z"/>
<path fill="#FFFFFF" opacity="1.000000" stroke="none" 
	d="
M688.601868,530.416626 
	C678.643494,530.416077 669.149292,530.416077 659.314209,530.416077 
	C659.314209,519.298584 659.314209,508.390747 659.314209,496.998413 
	C670.144897,496.998413 681.054993,496.998413 692.443481,496.998413 
	C692.443481,485.621216 692.443481,474.702271 692.443481,463.391144 
	C703.943481,463.391144 714.964722,463.391144 726.475403,463.391144 
	C726.475403,474.433472 726.475403,485.358826 726.475403,496.779938 
	C737.849731,496.779938 748.751709,496.779938 759.828857,496.779938 
	C759.828857,508.197815 759.828857,519.102722 759.828857,530.374207 
	C748.783203,530.374207 738.000732,530.374207 726.680542,530.374207 
	C726.680542,541.626587 726.680542,552.531067 726.680542,563.778198 
	C715.238586,563.778198 704.333618,563.778198 692.772522,563.778198 
	C692.772522,554.050781 692.690430,544.288025 692.823975,534.528198 
	C692.862610,531.702271 692.355225,529.935364 688.601868,530.416626 
z"/>
</svg>