<svg id="visual" viewBox="0 0 2700 200" width="2700" height="200" xmlns="http://www.w3.org/2000/svg" xmlns:xlink="http://www.w3.org/1999/xlink" version="1.1"><rect x="0" y="0" width="2700" height="200" fill="#ffffff"></rect><path d="M0 181L14.5 158C29 135 58 89 87 68.7C116 48.3 145 53.7 174 62.5C203 71.3 232 83.7 261 96.7C290 109.7 319 123.3 348 129.5C377 135.7 406 134.3 435.2 144C464.3 153.7 493.7 174.3 522.8 183.8C552 193.3 581 191.7 610 174C639 156.3 668 122.7 697 107.5C726 92.3 755 95.7 784 110.2C813 124.7 842 150.3 871 158.2C900 166 929 156 958 142.2C987 128.3 1016 110.7 1045 113.8C1074 117 1103 141 1132 150.7C1161 160.3 1190 155.7 1219 136.3C1248 117 1277 83 1306.2 66.8C1335.3 50.7 1364.7 52.3 1393.8 63.5C1423 74.7 1452 95.3 1481 119C1510 142.7 1539 169.3 1568 162.8C1597 156.3 1626 116.7 1655 94C1684 71.3 1713 65.7 1742 70.2C1771 74.7 1800 89.3 1829 90C1858 90.7 1887 77.3 1916 93C1945 108.7 1974 153.3 2003 159.8C2032 166.3 2061 134.7 2090 109.7C2119 84.7 2148 66.3 2177.2 80.5C2206.3 94.7 2235.7 141.3 2264.8 164.7C2294 188 2323 188 2352 185C2381 182 2410 176 2439 161.7C2468 147.3 2497 124.7 2526 105C2555 85.3 2584 68.7 2613 82.5C2642 96.3 2671 140.7 2685.5 162.8L2700 185L2700 201L2685.5 201C2671 201 2642 201 2613 201C2584 201 2555 201 2526 201C2497 201 2468 201 2439 201C2410 201 2381 201 2352 201C2323 201 2294 201 2264.8 201C2235.7 201 2206.3 201 2177.2 201C2148 201 2119 201 2090 201C2061 201 2032 201 2003 201C1974 201 1945 201 1916 201C1887 201 1858 201 1829 201C1800 201 1771 201 1742 201C1713 201 1684 201 1655 201C1626 201 1597 201 1568 201C1539 201 1510 201 1481 201C1452 201 1423 201 1393.8 201C1364.7 201 1335.3 201 1306.2 201C1277 201 1248 201 1219 201C1190 201 1161 201 1132 201C1103 201 1074 201 1045 201C1016 201 987 201 958 201C929 201 900 201 871 201C842 201 813 201 784 201C755 201 726 201 697 201C668 201 639 201 610 201C581 201 552 201 522.8 201C493.7 201 464.3 201 435.2 201C406 201 377 201 348 201C319 201 290 201 261 201C232 201 203 201 174 201C145 201 116 201 87 201C58 201 29 201 14.5 201L0 201Z" fill="#6ada2d" stroke-linecap="round" stroke-linejoin="miter"></path></svg>