<svg version="1.1" id="Layer_1" xmlns="http://www.w3.org/2000/svg" xmlns:xlink="http://www.w3.org/1999/xlink" x="0px" y="0px"
	 width="100%" viewBox="0 0 800 800" enable-background="new 0 0 800 800" xml:space="preserve">
<path fill="#000000" opacity="1.000000" stroke="none" 
	d="
M546.000000,801.000000 
	C364.000000,801.000000 182.500000,801.000000 1.000000,801.000000 
	C1.000000,534.333313 1.000000,267.666656 1.000000,1.000000 
	C267.666656,1.000000 534.333313,1.000000 801.000000,1.000000 
	C801.000000,267.666656 801.000000,534.333313 801.000000,801.000000 
	C716.166687,801.000000 631.333313,801.000000 546.000000,801.000000 
M711.980896,399.257355 
	C711.931763,398.504791 711.882629,397.752258 711.978699,396.201233 
	C711.930298,390.134247 711.881897,384.067291 711.978577,377.259125 
	C711.596985,373.839386 711.215332,370.419647 710.980103,366.138031 
	C710.306274,359.463165 710.220520,352.664001 708.841187,346.138275 
	C705.564697,330.637695 702.046448,315.167084 697.940186,299.868378 
	C692.761780,280.575043 683.729248,263.421631 668.478333,249.875717 
	C656.391907,239.140533 642.439331,233.310043 626.389465,233.072372 
	C606.064148,232.771408 585.728882,233.156723 565.402710,232.886627 
	C560.467163,232.821030 558.823181,233.966827 558.876160,239.188583 
	C559.144714,265.681274 559.051941,292.178345 558.946472,318.673309 
	C558.929565,322.922455 558.440674,327.206085 557.767273,331.409302 
	C555.804688,343.658264 551.311279,354.940735 545.135498,365.731201 
	C538.063721,378.087189 528.678711,388.312561 517.531433,396.832855 
	C499.562469,410.567230 479.246277,416.597595 456.394196,416.189270 
	C417.746582,415.498657 379.077606,415.961182 340.417877,416.050598 
	C335.832520,416.061218 331.128296,416.240204 326.685242,417.248840 
	C307.408630,421.624939 290.077698,429.837616 276.713104,444.861877 
	C265.927063,456.987366 259.066986,470.989990 259.034668,487.568756 
	C258.937561,537.393250 258.983063,587.218018 259.012329,637.042725 
	C259.018921,648.281799 261.809875,658.916992 266.546448,669.046082 
	C271.111206,678.807800 277.781036,687.028503 286.238007,693.584717 
	C291.709717,697.826782 297.593750,701.680847 303.714935,704.908691 
	C313.841583,710.248718 324.829651,712.913147 336.245605,714.164185 
	C351.817017,715.870667 367.295288,718.619568 382.898407,719.768250 
	C391.489380,720.400757 400.275146,718.870972 408.935944,717.962036 
	C423.234283,716.461487 437.517120,714.789307 451.779572,712.977478 
	C468.134338,710.899780 483.905457,706.603394 498.471497,698.766418 
	C508.610535,693.311401 516.991150,685.610718 521.862122,675.033386 
	C527.622314,662.525085 528.924744,649.001953 528.978699,635.383667 
	C529.061218,614.554260 529.000671,593.724304 529.000122,572.894592 
	C528.999878,566.002319 528.998779,566.000061 522.306885,566.000000 
	C475.981628,565.999268 429.656219,565.952637 383.331299,566.080383 
	C379.212250,566.091736 377.682617,565.001221 377.914825,560.736572 
	C378.249573,554.589172 378.343353,548.384949 377.894928,542.252136 
	C377.516724,537.079773 379.343170,535.879822 384.345276,535.890686 
	C457.665497,536.050171 530.986206,536.020691 604.306702,535.957458 
	C609.562439,535.952942 614.836060,535.514282 620.069641,534.971680 
	C634.887939,533.435242 649.000732,529.784058 661.824341,521.703430 
	C678.327148,511.304382 690.616882,497.290619 696.825378,478.905121 
	C701.257019,465.781555 704.253296,452.089203 706.827759,438.450134 
	C708.762390,428.200806 708.986084,417.630524 710.042419,407.210327 
	C710.151978,406.129700 710.745117,405.098175 711.769470,403.688782 
	C711.790771,402.459320 711.812012,401.229828 711.980896,399.257355 
M328.500000,235.000290 
	C353.827545,235.000381 379.155884,235.101288 404.481934,234.906296 
	C408.965118,234.871780 410.288177,236.328827 410.080597,240.648560 
	C409.769073,247.132065 410.001831,253.641602 409.999084,260.140076 
	C409.996185,266.993530 409.994141,266.998810 403.198486,266.998932 
	C328.549347,267.000244 253.900192,266.975525 179.251144,267.047119 
	C173.481384,267.052643 167.591400,267.111542 161.964325,268.208069 
	C140.539322,272.382935 121.293503,280.744812 106.599800,297.799377 
	C97.764809,308.053894 91.658615,319.806763 88.236603,332.610992 
	C84.575981,346.308014 82.208122,360.385315 79.909851,374.400574 
	C78.105904,385.401398 76.810471,396.533600 76.154480,407.658417 
	C75.689278,415.547668 76.427467,423.541168 77.062286,431.453339 
	C77.824280,440.950653 78.395363,450.538849 80.223465,459.857300 
	C82.943802,473.723724 86.214638,487.525848 90.118965,501.105835 
	C95.711655,520.558350 104.583107,538.201538 120.262619,551.881531 
	C131.884613,562.021362 145.353714,567.437439 160.473969,567.859436 
	C180.786697,568.426331 201.128418,567.880493 221.454742,568.093689 
	C225.901794,568.140320 227.070892,566.718201 227.093933,562.383850 
	C227.245041,533.950439 227.533447,505.516022 228.055832,477.087067 
	C228.316620,462.895905 233.105347,449.803619 240.024033,437.659882 
	C247.467590,424.594818 257.044312,413.216827 269.280640,404.153046 
	C285.576965,392.081879 303.561920,385.056488 323.976471,385.020874 
	C364.133575,384.950806 404.291565,385.115234 444.447540,384.889313 
	C451.296265,384.850830 458.306030,384.035431 464.945831,382.387787 
	C478.730804,378.967163 491.270020,372.944641 502.230499,363.496735 
	C517.423706,350.400208 526.932068,334.686584 526.970093,314.216797 
	C527.062317,264.561981 526.930237,214.906677 527.051575,165.251968 
	C527.080200,153.532578 524.666565,142.596863 519.093872,132.261780 
	C509.380157,114.246605 495.000580,101.515457 475.666901,95.056030 
	C465.197845,91.558296 454.258881,89.343872 443.411652,87.143112 
	C435.717346,85.582031 427.844727,84.402206 420.012177,84.109634 
	C391.550018,83.046486 363.231628,84.470444 335.181213,89.957130 
	C320.078522,92.911232 305.205750,96.288155 291.287933,103.240540 
	C270.311310,113.719025 261.158875,131.794281 260.240997,153.881363 
	C259.197174,178.998734 260.088379,204.193466 259.914459,229.353012 
	C259.884735,233.653229 261.027588,235.142349 265.515564,235.095398 
	C286.175110,234.879181 306.838196,235.000214 328.500000,235.000290 
z"/>
<path fill="#FEC008" opacity="1.000000" stroke="none" 
	d="
M711.113892,404.043854 
	C710.745117,405.098175 710.151978,406.129700 710.042419,407.210327 
	C708.986084,417.630524 708.762390,428.200806 706.827759,438.450134 
	C704.253296,452.089203 701.257019,465.781555 696.825378,478.905121 
	C690.616882,497.290619 678.327148,511.304382 661.824341,521.703430 
	C649.000732,529.784058 634.887939,533.435242 620.069641,534.971680 
	C614.836060,535.514282 609.562439,535.952942 604.306702,535.957458 
	C530.986206,536.020691 457.665497,536.050171 384.345276,535.890686 
	C379.343170,535.879822 377.516724,537.079773 377.894928,542.252136 
	C378.343353,548.384949 378.249573,554.589172 377.914825,560.736572 
	C377.682617,565.001221 379.212250,566.091736 383.331299,566.080383 
	C429.656219,565.952637 475.981628,565.999268 522.306885,566.000000 
	C528.998779,566.000061 528.999878,566.002319 529.000122,572.894592 
	C529.000671,593.724304 529.061218,614.554260 528.978699,635.383667 
	C528.924744,649.001953 527.622314,662.525085 521.862122,675.033386 
	C516.991150,685.610718 508.610535,693.311401 498.471497,698.766418 
	C483.905457,706.603394 468.134338,710.899780 451.779572,712.977478 
	C437.517120,714.789307 423.234283,716.461487 408.935944,717.962036 
	C400.275146,718.870972 391.489380,720.400757 382.898407,719.768250 
	C367.295288,718.619568 351.817017,715.870667 336.245605,714.164185 
	C324.829651,712.913147 313.841583,710.248718 303.714935,704.908691 
	C297.593750,701.680847 291.709717,697.826782 286.238007,693.584717 
	C277.781036,687.028503 271.111206,678.807800 266.546448,669.046082 
	C261.809875,658.916992 259.018921,648.281799 259.012329,637.042725 
	C258.983063,587.218018 258.937561,537.393250 259.034668,487.568756 
	C259.066986,470.989990 265.927063,456.987366 276.713104,444.861877 
	C290.077698,429.837616 307.408630,421.624939 326.685242,417.248840 
	C331.128296,416.240204 335.832520,416.061218 340.417877,416.050598 
	C379.077606,415.961182 417.746582,415.498657 456.394196,416.189270 
	C479.246277,416.597595 499.562469,410.567230 517.531433,396.832855 
	C528.678711,388.312561 538.063721,378.087189 545.135498,365.731201 
	C551.311279,354.940735 555.804688,343.658264 557.767273,331.409302 
	C558.440674,327.206085 558.929565,322.922455 558.946472,318.673309 
	C559.051941,292.178345 559.144714,265.681274 558.876160,239.188583 
	C558.823181,233.966827 560.467163,232.821030 565.402710,232.886627 
	C585.728882,233.156723 606.064148,232.771408 626.389465,233.072372 
	C642.439331,233.310043 656.391907,239.140533 668.478333,249.875717 
	C683.729248,263.421631 692.761780,280.575043 697.940186,299.868378 
	C702.046448,315.167084 705.564697,330.637695 708.841187,346.138275 
	C710.220520,352.664001 710.306274,359.463165 710.566772,366.654663 
	C705.931641,370.505005 705.913757,371.769196 709.605591,378.049255 
	C708.532715,378.723419 707.284729,379.330902 707.265015,379.975983 
	C707.093140,385.591980 707.033142,391.218964 707.252014,396.830566 
	C707.281555,397.588287 709.041321,398.278534 710.000000,399.250000 
	C710.000000,399.500000 710.000000,400.000000 710.003906,400.364929 
	C710.376526,401.834534 710.745178,402.939209 711.113892,404.043854 
M461.277039,602.133728 
	C456.756134,603.862549 451.348328,604.580566 450.764404,611.753113 
	C447.014954,617.128723 444.589417,622.435303 445.781006,629.645569 
	C447.990204,643.013794 465.242249,655.195984 479.872162,646.048889 
	C491.206543,638.962158 496.604156,624.825867 487.629883,613.245483 
	C485.192871,610.100830 481.900055,607.619385 478.826080,604.165161 
	C474.534851,599.276001 466.305908,598.217163 461.277039,602.133728 
z"/>
<path fill="#0277BC" opacity="1.000000" stroke="none" 
	d="
M328.000000,235.000290 
	C306.838196,235.000214 286.175110,234.879181 265.515564,235.095398 
	C261.027588,235.142349 259.884735,233.653229 259.914459,229.353012 
	C260.088379,204.193466 259.197174,178.998734 260.240997,153.881363 
	C261.158875,131.794281 270.311310,113.719025 291.287933,103.240540 
	C305.205750,96.288155 320.078522,92.911232 335.181213,89.957130 
	C363.231628,84.470444 391.550018,83.046486 420.012177,84.109634 
	C427.844727,84.402206 435.717346,85.582031 443.411652,87.143112 
	C454.258881,89.343872 465.197845,91.558296 475.666901,95.056030 
	C495.000580,101.515457 509.380157,114.246605 519.093872,132.261780 
	C524.666565,142.596863 527.080200,153.532578 527.051575,165.251968 
	C526.930237,214.906677 527.062317,264.561981 526.970093,314.216797 
	C526.932068,334.686584 517.423706,350.400208 502.230499,363.496735 
	C491.270020,372.944641 478.730804,378.967163 464.945831,382.387787 
	C458.306030,384.035431 451.296265,384.850830 444.447540,384.889313 
	C404.291565,385.115234 364.133575,384.950806 323.976471,385.020874 
	C303.561920,385.056488 285.576965,392.081879 269.280640,404.153046 
	C257.044312,413.216827 247.467590,424.594818 240.024033,437.659882 
	C233.105347,449.803619 228.316620,462.895905 228.055832,477.087067 
	C227.533447,505.516022 227.245041,533.950439 227.093933,562.383850 
	C227.070892,566.718201 225.901794,568.140320 221.454742,568.093689 
	C201.128418,567.880493 180.786697,568.426331 160.473969,567.859436 
	C145.353714,567.437439 131.884613,562.021362 120.262619,551.881531 
	C104.583107,538.201538 95.711655,520.558350 90.118965,501.105835 
	C86.214638,487.525848 82.943802,473.723724 80.223465,459.857300 
	C78.395363,450.538849 77.824280,440.950653 77.062286,431.453339 
	C76.427467,423.541168 75.689278,415.547668 76.154480,407.658417 
	C76.810471,396.533600 78.105904,385.401398 79.909851,374.400574 
	C82.208122,360.385315 84.575981,346.308014 88.236603,332.610992 
	C91.658615,319.806763 97.764809,308.053894 106.599800,297.799377 
	C121.293503,280.744812 140.539322,272.382935 161.964325,268.208069 
	C167.591400,267.111542 173.481384,267.052643 179.251144,267.047119 
	C253.900192,266.975525 328.549347,267.000244 403.198486,266.998932 
	C409.994141,266.998810 409.996185,266.993530 409.999084,260.140076 
	C410.001831,253.641602 409.769073,247.132065 410.080597,240.648560 
	C410.288177,236.328827 408.965118,234.871780 404.481934,234.906296 
	C379.155884,235.101288 353.827545,235.000381 328.000000,235.000290 
M321.178162,199.999390 
	C334.288574,199.702911 348.276520,182.398438 341.144653,167.091660 
	C334.977905,153.856232 319.179871,146.383469 304.883148,156.081833 
	C296.981628,161.441971 290.982819,173.855179 295.818726,184.221298 
	C300.552032,194.367569 307.010620,202.659103 321.178162,199.999390 
z"/>
<path fill="#FEC008" opacity="1.000000" stroke="none" 
	d="
M711.833496,378.000305 
	C711.881897,384.067291 711.930298,390.134247 711.600830,396.600616 
	C710.815247,397.000000 710.407654,397.000000 709.769165,396.657410 
	C709.692200,390.209900 709.846069,384.104950 710.305603,378.000000 
	C711.018616,378.000092 711.426086,378.000183 711.833496,378.000305 
z"/>
<path fill="#FEC008" opacity="1.000000" stroke="none" 
	d="
M711.906006,377.629700 
	C711.426086,378.000183 711.018616,378.000092 710.305603,378.000000 
	C705.913757,371.769196 705.931641,370.505005 710.493530,367.085602 
	C711.215332,370.419647 711.596985,373.839386 711.906006,377.629700 
z"/>
<path fill="#FEC007" opacity="1.000000" stroke="none" 
	d="
M711.441650,403.866333 
	C710.745178,402.939209 710.376526,401.834534 710.309875,400.364929 
	C711.019043,400.000122 711.426147,400.000244 711.833313,400.000366 
	C711.812012,401.229828 711.790771,402.459320 711.441650,403.866333 
z"/>
<path fill="#FEC008" opacity="1.000000" stroke="none" 
	d="
M711.907104,399.628845 
	C711.426147,400.000244 711.019043,400.000122 710.305908,400.000000 
	C710.000000,400.000000 710.000000,399.500000 710.000000,398.916687 
	C710.000000,397.888885 710.000000,397.444458 710.000000,397.000000 
	C710.407654,397.000000 710.815247,397.000000 711.528198,396.999847 
	C711.882629,397.752258 711.931763,398.504791 711.907104,399.628845 
z"/>
<path fill="#000000" opacity="1.000000" stroke="none" 
	d="
M479.000031,604.833557 
	C481.900055,607.619385 485.192871,610.100830 487.629883,613.245483 
	C496.604156,624.825867 491.206543,638.962158 479.872162,646.048889 
	C465.242249,655.195984 447.990204,643.013794 445.781006,629.645569 
	C444.589417,622.435303 447.014954,617.128723 451.216797,611.297363 
	C455.112579,608.505615 458.556000,606.169495 462.384369,603.900330 
	C468.347015,601.118530 473.634125,603.714233 479.000031,604.833557 
z"/>
<path fill="#FEC008" opacity="1.000000" stroke="none" 
	d="
M478.913055,604.499390 
	C473.634125,603.714233 468.347015,601.118530 462.384583,603.594727 
	C461.999908,602.814880 461.999969,602.407410 462.000000,602.000000 
	C466.305908,598.217163 474.534851,599.276001 478.913055,604.499390 
z"/>
<path fill="#FEC008" opacity="1.000000" stroke="none" 
	d="
M709.769165,396.657410 
	C710.000000,397.444458 710.000000,397.888885 710.000000,398.666687 
	C709.041321,398.278534 707.281555,397.588287 707.252014,396.830566 
	C707.033142,391.218964 707.093140,385.591980 707.265015,379.975983 
	C707.284729,379.330902 708.532715,378.723419 709.605591,378.049255 
	C709.846069,384.104950 709.692200,390.209900 709.769165,396.657410 
z"/>
<path fill="#FEC008" opacity="1.000000" stroke="none" 
	d="
M461.638519,602.066895 
	C461.999969,602.407410 461.999908,602.814880 461.999634,603.527832 
	C458.556000,606.169495 455.112579,608.505615 451.356079,610.977661 
	C451.348328,604.580566 456.756134,603.862549 461.638519,602.066895 
z"/>
<path fill="#000000" opacity="1.000000" stroke="none" 
	d="
M320.718018,199.999527 
	C307.010620,202.659103 300.552032,194.367569 295.818726,184.221298 
	C290.982819,173.855179 296.981628,161.441971 304.883148,156.081833 
	C319.179871,146.383469 334.977905,153.856232 341.144653,167.091660 
	C348.276520,182.398438 334.288574,199.702911 320.718018,199.999527 
z"/>
</svg>