<svg id="visual" viewBox="0 0 2700 200" width="2700" height="200" xmlns="http://www.w3.org/2000/svg" xmlns:xlink="http://www.w3.org/1999/xlink" version="1.1"><rect x="0" y="0" width="2700" height="200" fill="#6ada2d"></rect><path d="M0 74L14.5 69.8C29 65.7 58 57.3 87 72.5C116 87.7 145 126.3 174 150.7C203 175 232 185 261 178.8C290 172.7 319 150.3 348 132.2C377 114 406 100 435.2 107.2C464.3 114.3 493.7 142.7 522.8 150.2C552 157.7 581 144.3 610 127.2C639 110 668 89 697 91C726 93 755 118 784 129C813 140 842 137 871 126.7C900 116.3 929 98.7 958 98C987 97.3 1016 113.7 1045 124.2C1074 134.7 1103 139.3 1132 136.2C1161 133 1190 122 1219 113.5C1248 105 1277 99 1306.2 113.3C1335.3 127.7 1364.7 162.3 1393.8 168C1423 173.7 1452 150.3 1481 124.8C1510 99.3 1539 71.7 1568 68.2C1597 64.7 1626 85.3 1655 103.8C1684 122.3 1713 138.7 1742 132.8C1771 127 1800 99 1829 90C1858 81 1887 91 1916 102C1945 113 1974 125 2003 134.2C2032 143.3 2061 149.7 2090 150.7C2119 151.7 2148 147.3 2177.2 153C2206.3 158.7 2235.7 174.3 2264.8 167.3C2294 160.3 2323 130.7 2352 129.5C2381 128.3 2410 155.7 2439 148.7C2468 141.7 2497 100.3 2526 85.3C2555 70.3 2584 81.7 2613 93.2C2642 104.7 2671 116.3 2685.5 122.2L2700 128L2700 201L2685.5 201C2671 201 2642 201 2613 201C2584 201 2555 201 2526 201C2497 201 2468 201 2439 201C2410 201 2381 201 2352 201C2323 201 2294 201 2264.8 201C2235.7 201 2206.3 201 2177.2 201C2148 201 2119 201 2090 201C2061 201 2032 201 2003 201C1974 201 1945 201 1916 201C1887 201 1858 201 1829 201C1800 201 1771 201 1742 201C1713 201 1684 201 1655 201C1626 201 1597 201 1568 201C1539 201 1510 201 1481 201C1452 201 1423 201 1393.8 201C1364.7 201 1335.3 201 1306.2 201C1277 201 1248 201 1219 201C1190 201 1161 201 1132 201C1103 201 1074 201 1045 201C1016 201 987 201 958 201C929 201 900 201 871 201C842 201 813 201 784 201C755 201 726 201 697 201C668 201 639 201 610 201C581 201 552 201 522.8 201C493.7 201 464.3 201 435.2 201C406 201 377 201 348 201C319 201 290 201 261 201C232 201 203 201 174 201C145 201 116 201 87 201C58 201 29 201 14.5 201L0 201Z" fill="#ff3860" stroke-linecap="round" stroke-linejoin="miter"></path></svg>