<svg version="1.1" id="Layer_1" xmlns="http://www.w3.org/2000/svg" xmlns:xlink="http://www.w3.org/1999/xlink" x="0px" y="0px"
	 width="100%" viewBox="0 0 512 512" enable-background="new 0 0 512 512" xml:space="preserve">
<path fill="#000000" opacity="1.000000" stroke="none" 
	d="
M95.000000,513.000000 
	C63.679966,513.000000 32.359936,513.000000 1.019952,513.000000 
	C1.019952,342.419098 1.019952,171.838165 1.019952,1.000000 
	C139.688568,1.000000 278.377319,1.000000 417.526794,1.362307 
	C416.946045,3.357615 416.276611,5.559478 414.799133,6.525870 
	C408.148773,10.875725 401.687134,15.962446 394.383484,18.770113 
	C380.008209,24.296240 365.282928,29.098476 350.401611,33.074074 
	C332.038605,37.979820 313.453033,42.161297 294.805817,45.860260 
	C279.611755,48.874237 264.194061,50.775341 248.859406,53.061520 
	C237.228470,54.795521 225.597015,56.572067 213.919876,57.936718 
	C202.831818,59.232525 191.685547,60.033878 180.562302,61.023781 
	C165.510468,62.363304 150.474731,63.975296 135.397263,64.906883 
	C122.669083,65.693314 109.891174,65.672287 97.135849,66.029327 
	C96.519142,66.046585 95.908020,66.263191 95.003960,66.445518 
	C95.003960,107.554184 94.991577,148.486954 95.086891,189.419464 
	C95.088943,190.297165 96.328552,191.171997 97.086685,192.374298 
	C101.372475,194.933975 105.338257,197.889435 109.792305,199.272614 
	C126.556595,204.478653 143.463669,209.229691 160.350311,214.035019 
	C169.227707,216.561172 178.173615,218.846680 186.801270,221.548981 
	C178.660370,222.567581 170.819321,223.505936 162.950455,223.939941 
	C147.774277,224.776917 132.579987,225.279694 117.398056,226.020386 
	C110.030090,226.379883 102.673058,226.963730 95.204948,227.452957 
	C95.128258,228.264572 95.014503,228.907578 95.014328,229.550613 
	C95.003593,269.508148 94.993919,309.465668 95.039627,349.423157 
	C95.040993,350.614471 95.632278,351.805176 96.193756,353.234192 
	C98.714447,354.832916 100.836731,356.643677 103.290993,357.478973 
	C116.171074,361.862579 129.013779,366.431244 142.101593,370.109680 
	C157.587570,374.462189 173.310257,377.972534 188.511124,381.913513 
	C186.676590,382.317230 185.277115,382.842957 183.843445,382.964050 
	C171.399963,384.015442 158.963837,385.241089 146.498657,385.923828 
	C134.434143,386.584595 122.334122,386.570648 110.257210,387.044434 
	C105.224869,387.241852 100.211967,387.934570 95.000000,388.419800 
	C95.000000,430.156921 95.000000,471.578461 95.000000,513.000000 
z"/>
<path fill="#000000" opacity="1.000000" stroke="none" 
	d="
M419.000000,1.000000 
	C450.319427,1.000000 481.638885,1.000000 512.979126,1.000000 
	C512.979126,171.577072 512.979126,342.154144 512.979126,513.000000 
	C387.645355,513.000000 262.290527,513.000000 136.263184,512.597412 
	C137.271729,511.796631 138.935425,511.171204 140.636948,511.041443 
	C146.561569,510.589722 152.526520,510.559082 158.426529,509.914276 
	C172.109192,508.418884 185.761490,506.646759 199.428711,505.008606 
	C210.816818,503.643616 222.248810,502.580261 233.589233,500.897278 
	C249.731216,498.501740 265.836670,495.826752 281.902863,492.963196 
	C297.141968,490.247009 312.392090,487.497162 327.487610,484.097168 
	C343.667969,480.452850 359.886414,476.708649 375.687225,471.734253 
	C388.028900,467.848877 399.863220,462.250580 411.699432,456.917328 
	C415.694946,455.116974 419.023529,451.878357 419.015747,446.642853 
	C418.955017,405.813110 418.936310,364.983246 418.948730,323.724762 
	C419.106262,317.126434 416.846008,311.990753 412.316986,307.812164 
	C409.812134,305.501068 407.364502,303.127991 405.097168,300.507629 
	C407.290039,299.139038 409.414642,298.235352 411.234894,296.912811 
	C415.048401,294.142059 419.024078,291.441589 419.014648,285.863281 
	C418.945526,244.978790 418.917175,204.094238 418.922058,162.777435 
	C417.856659,158.419968 417.719849,153.736679 415.398712,150.752197 
	C412.146271,146.570236 407.267731,143.652969 403.440247,140.104828 
	C405.683533,139.062759 407.597443,138.158585 409.454376,137.149536 
	C415.744904,133.731277 419.339569,129.512711 419.233185,121.255180 
	C418.716919,81.175774 419.000031,41.086063 419.000000,1.000000 
z"/>
<path fill="#FF311C" opacity="1.000000" stroke="none" 
	d="
M418.904633,324.153442 
	C418.936310,364.983246 418.955017,405.813110 419.015747,446.642853 
	C419.023529,451.878357 415.694946,455.116974 411.699432,456.917328 
	C399.863220,462.250580 388.028900,467.848877 375.687225,471.734253 
	C359.886414,476.708649 343.667969,480.452850 327.487610,484.097168 
	C312.392090,487.497162 297.141968,490.247009 281.902863,492.963196 
	C265.836670,495.826752 249.731216,498.501740 233.589233,500.897278 
	C222.248810,502.580261 210.816818,503.643616 199.428711,505.008606 
	C185.761490,506.646759 172.109192,508.418884 158.426529,509.914276 
	C152.526520,510.559082 146.561569,510.589722 140.636948,511.041443 
	C138.935425,511.171204 137.271729,511.796631 135.795349,512.597412 
	C122.645775,513.000000 109.291542,513.000000 95.468658,513.000000 
	C95.000000,471.578461 95.000000,430.156921 95.000000,388.419800 
	C100.211967,387.934570 105.224869,387.241852 110.257210,387.044434 
	C122.334122,386.570648 134.434143,386.584595 146.498657,385.923828 
	C158.963837,385.241089 171.399963,384.015442 183.843445,382.964050 
	C185.277115,382.842957 186.676590,382.317230 188.975830,381.972809 
	C193.187820,381.879150 196.558472,382.103394 199.837280,381.655487 
	C227.875748,377.825226 255.979889,374.378601 283.903778,369.831024 
	C319.759491,363.991638 355.130463,355.867584 389.263763,343.136688 
	C400.436951,338.969360 411.967743,335.067688 418.904633,324.153442 
z"/>
<path fill="#FF311C" opacity="1.000000" stroke="none" 
	d="
M418.750000,1.000000 
	C419.000031,41.086063 418.716919,81.175774 419.233185,121.255180 
	C419.339569,129.512711 415.744904,133.731277 409.454376,137.149536 
	C407.597443,138.158585 405.683533,139.062759 403.072540,140.126404 
	C382.029663,146.495224 361.981964,153.897614 341.340790,158.802078 
	C270.621460,175.605423 198.724396,184.843750 126.291405,190.151779 
	C116.530647,190.867065 106.757988,191.420044 96.990845,192.048172 
	C96.328552,191.171997 95.088943,190.297165 95.086891,189.419464 
	C94.991577,148.486954 95.003960,107.554184 95.003960,66.445518 
	C95.908020,66.263191 96.519142,66.046585 97.135849,66.029327 
	C109.891174,65.672287 122.669083,65.693314 135.397263,64.906883 
	C150.474731,63.975296 165.510468,62.363304 180.562302,61.023781 
	C191.685547,60.033878 202.831818,59.232525 213.919876,57.936718 
	C225.597015,56.572067 237.228470,54.795521 248.859406,53.061520 
	C264.194061,50.775341 279.611755,48.874237 294.805817,45.860260 
	C313.453033,42.161297 332.038605,37.979820 350.401611,33.074074 
	C365.282928,29.098476 380.008209,24.296240 394.383484,18.770113 
	C401.687134,15.962446 408.148773,10.875725 414.799133,6.525870 
	C416.276611,5.559478 416.946045,3.357615 417.993774,1.362307 
	C418.000000,1.000000 418.500000,1.000000 418.750000,1.000000 
z"/>
<path fill="#FF311C" opacity="1.000000" stroke="none" 
	d="
M418.875977,163.209702 
	C418.917175,204.094238 418.945526,244.978790 419.014648,285.863281 
	C419.024078,291.441589 415.048401,294.142059 411.234894,296.912811 
	C409.414642,298.235352 407.290039,299.139038 404.704956,300.561218 
	C402.346313,301.336487 400.563263,301.708984 398.829102,302.240845 
	C380.571350,307.840332 362.518158,314.241241 344.030151,318.928619 
	C299.482605,330.222961 254.132095,337.514893 208.517654,342.642975 
	C172.345703,346.709473 135.975708,349.012909 99.696449,352.131836 
	C98.431725,352.240601 97.197151,352.700134 95.948517,352.996155 
	C95.632278,351.805176 95.040993,350.614471 95.039627,349.423157 
	C94.993919,309.465668 95.003593,269.508148 95.014328,229.550613 
	C95.014503,228.907578 95.128258,228.264572 95.204948,227.452957 
	C102.673058,226.963730 110.030090,226.379883 117.398056,226.020386 
	C132.579987,225.279694 147.774277,224.776917 162.950455,223.939941 
	C170.819321,223.505936 178.660370,222.567581 187.261642,221.481293 
	C200.104507,220.062485 212.243225,219.376923 224.287003,217.911362 
	C265.124969,212.941940 305.759705,206.573074 345.503784,195.794434 
	C363.926758,190.798096 381.956207,184.263184 399.962677,177.859497 
	C407.635651,175.130753 414.720581,170.859848 418.875977,163.209702 
z"/>
<path fill="#400502" opacity="1.000000" stroke="none" 
	d="
M96.193764,353.234192 
	C97.197151,352.700134 98.431725,352.240601 99.696449,352.131836 
	C135.975708,349.012909 172.345703,346.709473 208.517654,342.642975 
	C254.132095,337.514893 299.482605,330.222961 344.030151,318.928619 
	C362.518158,314.241241 380.571350,307.840332 398.829102,302.240845 
	C400.563263,301.708984 402.346313,301.336487 404.498840,300.836426 
	C407.364502,303.127991 409.812134,305.501068 412.316986,307.812164 
	C416.846008,311.990753 419.106262,317.126434 418.948730,323.724762 
	C411.967743,335.067688 400.436951,338.969360 389.263763,343.136688 
	C355.130463,355.867584 319.759491,363.991638 283.903778,369.831024 
	C255.979889,374.378601 227.875748,377.825226 199.837280,381.655487 
	C196.558472,382.103394 193.187820,381.879150 189.395050,381.907227 
	C173.310257,377.972534 157.587570,374.462189 142.101593,370.109680 
	C129.013779,366.431244 116.171074,361.862579 103.290993,357.478973 
	C100.836731,356.643677 98.714447,354.832916 96.193764,353.234192 
z"/>
<path fill="#400502" opacity="1.000000" stroke="none" 
	d="
M418.922089,162.777435 
	C414.720581,170.859848 407.635651,175.130753 399.962677,177.859497 
	C381.956207,184.263184 363.926758,190.798096 345.503784,195.794434 
	C305.759705,206.573074 265.124969,212.941940 224.287003,217.911362 
	C212.243225,219.376923 200.104507,220.062485 187.548950,221.173187 
	C178.173615,218.846680 169.227707,216.561172 160.350311,214.035019 
	C143.463669,209.229691 126.556595,204.478653 109.792305,199.272614 
	C105.338257,197.889435 101.372475,194.933975 97.086678,192.374298 
	C106.757988,191.420044 116.530647,190.867065 126.291405,190.151779 
	C198.724396,184.843750 270.621460,175.605423 341.340790,158.802078 
	C361.981964,153.897614 382.029663,146.495224 402.717102,140.216248 
	C407.267731,143.652969 412.146271,146.570236 415.398712,150.752197 
	C417.719849,153.736679 417.856659,158.419968 418.922089,162.777435 
z"/>
</svg>