<svg version="1.1" id="Layer_1" xmlns="http://www.w3.org/2000/svg" xmlns:xlink="http://www.w3.org/1999/xlink" x="0px" y="0px"
	 width="100%" viewBox="0 0 233 235" enable-background="new 0 0 233 235" xml:space="preserve">
<path fill="#0D64C0" opacity="1.000000" stroke="none" 
	d="
M209.000031,236.000000 
	C139.333359,236.000000 70.166702,236.000000 1.000030,236.000000 
	C1.000020,157.666687 1.000020,79.333382 1.000010,1.000051 
	C78.666634,1.000034 156.333267,1.000034 233.999939,1.000017 
	C233.999954,79.333290 233.999954,157.666580 233.999969,235.999939 
	C225.833359,236.000000 217.666702,236.000000 209.000031,236.000000 
M205.326019,208.898270 
	C208.186417,204.906158 212.258057,201.303116 213.687958,196.851501 
	C218.665527,181.355148 214.607437,165.967331 196.702103,157.041473 
	C189.150177,153.276794 181.405685,149.879211 173.984970,145.876770 
	C168.414490,142.872269 166.599396,137.777939 168.556717,132.961121 
	C170.525085,128.117126 176.127991,125.431847 182.000687,127.745857 
	C186.079514,129.353027 189.483582,132.672607 193.666214,135.556046 
	C198.269165,132.484070 203.617126,128.914886 209.017151,125.310951 
	C201.616180,111.973038 190.138306,107.664070 175.905884,108.157944 
	C154.815582,108.889793 141.713837,127.020561 147.910507,147.249573 
	C150.693176,156.333572 157.205399,162.010193 165.244064,166.152252 
	C172.605988,169.945587 180.312881,173.086411 187.576874,177.048157 
	C195.219406,181.216354 196.347961,190.560287 189.589584,194.307907 
	C185.910980,196.347748 181.161133,197.278610 176.897736,197.268890 
	C168.142609,197.248962 162.326675,191.680527 157.481537,184.352692 
	C151.451889,187.849991 145.697052,191.187897 139.986816,194.499924 
	C151.261124,218.249222 186.273880,222.840485 205.326019,208.898270 
M75.500145,109.229027 
	C68.673256,109.229546 61.841755,109.100060 55.023407,109.341682 
	C53.680534,109.389267 51.309086,110.797241 51.249840,111.698616 
	C50.893421,117.121078 51.072838,122.578766 51.072838,128.712616 
	C61.542896,128.712616 71.528023,128.712616 82.008705,128.712616 
	C82.008705,157.949524 82.008705,186.493683 82.008705,214.949097 
	C89.293900,214.949097 96.041122,214.949097 103.164436,214.949097 
	C103.164436,186.072632 103.164436,157.514191 103.164436,128.550461 
	C113.442627,128.550461 123.353790,128.550461 133.770813,128.550461 
	C133.770813,123.537910 133.480774,118.901695 133.854477,114.319595 
	C134.210068,109.959526 132.437820,109.099861 128.450577,109.145012 
	C111.135658,109.341057 93.817261,109.229057 75.500145,109.229027 
z"/>
<path fill="#FDFEFE" opacity="1.000000" stroke="none" 
	d="
M205.067261,209.152771 
	C186.273880,222.840485 151.261124,218.249222 139.986816,194.499924 
	C145.697052,191.187897 151.451889,187.849991 157.481537,184.352692 
	C162.326675,191.680527 168.142609,197.248962 176.897736,197.268890 
	C181.161133,197.278610 185.910980,196.347748 189.589584,194.307907 
	C196.347961,190.560287 195.219406,181.216354 187.576874,177.048157 
	C180.312881,173.086411 172.605988,169.945587 165.244064,166.152252 
	C157.205399,162.010193 150.693176,156.333572 147.910507,147.249573 
	C141.713837,127.020561 154.815582,108.889793 175.905884,108.157944 
	C190.138306,107.664070 201.616180,111.973038 209.017151,125.310951 
	C203.617126,128.914886 198.269165,132.484070 193.666214,135.556046 
	C189.483582,132.672607 186.079514,129.353027 182.000687,127.745857 
	C176.127991,125.431847 170.525085,128.117126 168.556717,132.961121 
	C166.599396,137.777939 168.414490,142.872269 173.984970,145.876770 
	C181.405685,149.879211 189.150177,153.276794 196.702103,157.041473 
	C214.607437,165.967331 218.665527,181.355148 213.687958,196.851501 
	C212.258057,201.303116 208.186417,204.906158 205.067261,209.152771 
z"/>
<path fill="#FCFEFE" opacity="1.000000" stroke="none" 
	d="
M76.000137,109.229027 
	C93.817261,109.229057 111.135658,109.341057 128.450577,109.145012 
	C132.437820,109.099861 134.210068,109.959526 133.854477,114.319595 
	C133.480774,118.901695 133.770813,123.537910 133.770813,128.550461 
	C123.353790,128.550461 113.442627,128.550461 103.164436,128.550461 
	C103.164436,157.514191 103.164436,186.072632 103.164436,214.949097 
	C96.041122,214.949097 89.293900,214.949097 82.008705,214.949097 
	C82.008705,186.493683 82.008705,157.949524 82.008705,128.712616 
	C71.528023,128.712616 61.542896,128.712616 51.072838,128.712616 
	C51.072838,122.578766 50.893421,117.121078 51.249840,111.698616 
	C51.309086,110.797241 53.680534,109.389267 55.023407,109.341682 
	C61.841755,109.100060 68.673256,109.229546 76.000137,109.229027 
z"/>
</svg>