<svg id="visual" viewBox="0 0 2700 200" width="2700" height="200" xmlns="http://www.w3.org/2000/svg" xmlns:xlink="http://www.w3.org/1999/xlink" version="1.1"><rect x="0" y="0" width="2700" height="200" fill="#5DA9E9"></rect><path d="M0 38L14.5 40.5C29 43 58 48 87 47.2C116 46.3 145 39.7 174 45.5C203 51.3 232 69.7 261 92.5C290 115.3 319 142.7 348 133.5C377 124.3 406 78.7 435.2 76.5C464.3 74.3 493.7 115.7 522.8 137.3C552 159 581 161 610 143.8C639 126.7 668 90.3 697 81.3C726 72.3 755 90.7 784 103C813 115.3 842 121.7 871 130.5C900 139.3 929 150.7 958 139.7C987 128.7 1016 95.3 1045 88.7C1074 82 1103 102 1132 111.8C1161 121.7 1190 121.3 1219 117.8C1248 114.3 1277 107.7 1306.2 108C1335.3 108.3 1364.7 115.7 1393.8 127.5C1423 139.3 1452 155.7 1481 144C1510 132.3 1539 92.7 1568 85.5C1597 78.3 1626 103.7 1655 120C1684 136.3 1713 143.7 1742 133.5C1771 123.3 1800 95.7 1829 87C1858 78.3 1887 88.7 1916 100.7C1945 112.7 1974 126.3 2003 119C2032 111.7 2061 83.3 2090 83.3C2119 83.3 2148 111.7 2177.2 130.2C2206.3 148.7 2235.7 157.3 2264.8 156.2C2294 155 2323 144 2352 130.3C2381 116.7 2410 100.3 2439 96C2468 91.7 2497 99.3 2526 95.7C2555 92 2584 77 2613 79C2642 81 2671 100 2685.5 109.5L2700 119L2700 201L2685.5 201C2671 201 2642 201 2613 201C2584 201 2555 201 2526 201C2497 201 2468 201 2439 201C2410 201 2381 201 2352 201C2323 201 2294 201 2264.8 201C2235.7 201 2206.3 201 2177.2 201C2148 201 2119 201 2090 201C2061 201 2032 201 2003 201C1974 201 1945 201 1916 201C1887 201 1858 201 1829 201C1800 201 1771 201 1742 201C1713 201 1684 201 1655 201C1626 201 1597 201 1568 201C1539 201 1510 201 1481 201C1452 201 1423 201 1393.8 201C1364.7 201 1335.3 201 1306.2 201C1277 201 1248 201 1219 201C1190 201 1161 201 1132 201C1103 201 1074 201 1045 201C1016 201 987 201 958 201C929 201 900 201 871 201C842 201 813 201 784 201C755 201 726 201 697 201C668 201 639 201 610 201C581 201 552 201 522.8 201C493.7 201 464.3 201 435.2 201C406 201 377 201 348 201C319 201 290 201 261 201C232 201 203 201 174 201C145 201 116 201 87 201C58 201 29 201 14.5 201L0 201Z" fill="#ffd000" stroke-linecap="round" stroke-linejoin="miter"></path></svg>